<svg width="552" height="564" viewBox="0 0 552 564" fill="none" xmlns="http://www.w3.org/2000/svg">
<path d="M373.287 19.75L394.319 64.1498L31.997 235.716L10.9648 191.326L373.287 19.75Z" fill="url(#paint0_linear_193_450)"/>
<path d="M393.693 62.8223L394.322 64.1505L31.9998 235.717L31.3711 234.388L393.693 62.8223Z" fill="url(#paint1_linear_193_450)"/>
<path d="M373.289 19.7504L413.153 0.871094L434.185 45.281L394.321 64.1501L373.289 19.7504Z" fill="url(#paint2_linear_193_450)"/>
<path d="M373.289 19.7513L374.597 19.1328L395.629 63.5326L394.321 64.1511L373.289 19.7513Z" fill="url(#paint3_linear_193_450)"/>
<path d="M32.139 235.656L21.7852 259.574L423.829 69.1997L434.183 45.2812L32.139 235.656Z" fill="#11110F"/>
<path d="M11.1077 191.256L0.753906 215.184L21.786 259.574L32.1399 235.656L11.1077 191.256Z" fill="url(#paint4_linear_193_450)"/>
<path d="M291.379 58.5424L332.307 93.5126L363.065 78.9426L322.136 43.9824L291.379 58.5424Z" fill="url(#paint5_linear_193_450)"/>
<path d="M225.98 89.5072L266.909 124.477L297.666 109.918L256.717 74.9473L225.98 89.5072Z" fill="url(#paint6_linear_193_450)"/>
<path d="M160.562 120.484L201.511 155.444L232.268 140.884L191.32 105.924L160.562 120.484Z" fill="url(#paint7_linear_193_450)"/>
<path d="M95.1641 151.459L136.113 186.419L166.87 171.849L125.921 136.889L95.1641 151.459Z" fill="url(#paint8_linear_193_450)"/>
<path d="M427.814 156.822L43.1006 269.571L24.4414 275.046L38.2533 322.183L56.9226 316.708V316.698L441.636 203.96L427.814 156.822Z" fill="url(#paint9_linear_193_450)"/>
<path d="M427.812 156.812L470.14 144.412L483.962 191.56L441.634 203.96L427.812 156.812Z" fill="url(#paint10_linear_193_450)"/>
<path d="M427.812 156.812L429.202 156.406L443.024 203.554L441.634 203.959L427.812 156.812Z" fill="url(#paint11_linear_193_450)"/>
<path d="M186.289 227.605L178.978 280.938L146.324 290.509L153.636 237.177L186.289 227.605Z" fill="url(#paint12_linear_193_450)"/>
<path d="M255.733 207.256L248.421 260.578L215.758 270.15L223.09 216.817L255.733 207.256Z" fill="url(#paint13_linear_193_450)"/>
<path d="M325.188 186.896L317.857 240.229L285.203 249.8L292.535 196.468L325.188 186.896Z" fill="url(#paint14_linear_193_450)"/>
<path d="M394.634 166.547L387.302 219.879L354.648 229.451L361.97 176.118L394.634 166.547Z" fill="url(#paint15_linear_193_450)"/>
<path d="M161.551 264.572C165.151 276.861 142.293 294.381 110.491 303.699C78.6896 313.017 49.9809 310.614 46.3809 298.326C42.7809 286.037 65.6384 268.516 97.4401 259.198C129.242 249.88 157.951 252.283 161.551 264.572Z" fill="url(#paint16_radial_193_450)"/>
<path d="M70.2108 208.776C81.4367 222.879 82.6739 240.562 72.9894 248.268C63.3049 255.974 46.3494 250.793 35.1235 236.699C23.8975 222.596 22.6502 204.913 32.3448 197.207C42.0294 189.501 58.9849 194.682 70.2108 208.776Z" fill="url(#paint17_radial_193_450)"/>
<path d="M35.213 217.708L57.0868 292.333C58.7905 298.143 64.8851 301.478 70.6958 299.775L134.664 281.028C143.659 278.391 145.414 266.427 137.565 261.307L51.7122 205.429C43.1837 199.873 32.3432 207.934 35.213 217.708Z" fill="url(#paint18_linear_193_450)"/>
<path d="M134.046 278.878L70.0778 297.626C64.267 299.329 58.1724 296.003 56.4688 290.184L57.0975 292.323C58.8011 298.133 64.8958 301.469 70.7065 299.765L134.675 281.018C141.419 279.041 144.096 271.821 141.703 266.174C142.717 271.385 139.958 277.144 134.046 278.878Z" fill="url(#paint19_linear_193_450)"/>
<path d="M53.9649 216.34C54.8066 219.199 53.1637 222.19 50.304 223.032C47.4443 223.873 44.4528 222.231 43.6111 219.372C42.7694 216.512 44.4122 213.521 47.2719 212.68C50.1316 211.848 53.1232 213.481 53.9649 216.34Z" fill="url(#paint20_linear_193_450)"/>
<path d="M73.6758 283.584C74.5175 286.443 72.8747 289.434 70.015 290.276C67.1552 291.118 64.1637 289.475 63.322 286.616C62.4803 283.756 64.1231 280.765 66.9829 279.924C69.8426 279.092 72.8341 280.725 73.6758 283.584Z" fill="url(#paint21_linear_193_450)"/>
<path d="M123.051 274.499C126.031 274.499 128.446 272.084 128.446 269.105C128.446 266.126 126.031 263.711 123.051 263.711C120.072 263.711 117.656 266.126 117.656 269.105C117.656 272.084 120.072 274.499 123.051 274.499Z" fill="url(#paint22_linear_193_450)"/>
<path d="M551.188 420.87L483.965 191.561L441.637 203.961L441.647 204.001V203.991L56.9333 316.74L56.9232 316.709L38.2539 322.184L105.478 551.494C108.145 560.609 117.707 565.831 126.824 563.164L128.984 562.535H128.994L539.526 442.223C548.633 439.536 553.855 429.975 551.188 420.87Z" fill="url(#paint23_linear_193_450)"/>
<path d="M112.415 545.622L49.0039 329.341L431.649 217.201L112.415 545.622Z" fill="url(#paint24_linear_193_450)"/>
<path d="M469.19 238.171L468.622 236.234L81.0898 349.804L81.6577 351.741L203.439 316.051L227.412 397.813L105.631 433.504L106.199 435.44L373.309 357.155L383.49 391.892L116.38 470.177L116.948 472.114L384.058 393.829L393.702 426.72L395.639 426.153L385.995 393.261L504.48 358.534L503.913 356.597L385.427 391.324L375.245 356.587L493.731 321.86L493.163 319.924L374.678 354.651L350.705 272.888L469.19 238.171ZM372.731 355.229L229.339 397.256L205.366 315.493L348.758 273.466L372.731 355.229Z" fill="url(#paint25_linear_193_450)"/>
<path d="M127.697 508.797L515.229 395.228L514.662 393.291L127.129 506.861L127.697 508.797Z" fill="url(#paint26_linear_193_450)"/>
<path d="M116.047 442.536L119.982 441.381C122.466 440.65 124.099 441.675 124.839 444.209L127.182 452.209C127.922 454.744 127.111 456.478 124.616 457.208L120.681 458.364L116.047 442.536ZM119.201 444.067L122.517 455.373L123.916 454.957C124.707 454.724 125.062 454.176 124.727 453.051L122.314 444.818C121.979 443.692 121.391 443.418 120.6 443.652L119.201 444.067Z" fill="white"/>
<path d="M137.929 453.304L135.424 454.044L134.157 451.296L131.104 452.189L131.52 455.18L129.238 455.849L127.129 439.281L130.769 438.217L137.929 453.304ZM130.79 449.948L133.183 449.248L129.634 441.593L130.79 449.948Z" fill="white"/>
<path d="M133.723 437.354L141.409 435.104L142.069 437.365L139.473 438.125L143.448 451.691L140.963 452.421L136.988 438.855L134.382 439.615L133.723 437.354Z" fill="white"/>
<path d="M146.934 440.732L150.351 439.728L151.011 441.989L147.593 442.993L148.952 447.626L153.252 446.369L153.911 448.63L147.127 450.617L142.492 434.79L149.276 432.803L149.936 435.064L145.636 436.321L146.934 440.732Z" fill="white"/>
<path d="M126.34 480.315L134.027 478.064L134.686 480.325L132.09 481.086L136.065 494.652L133.58 495.382L129.605 481.816L126.999 482.576L126.34 480.315Z" fill="white"/>
<path d="M135.113 477.74L137.598 477.01L142.232 492.837L139.748 493.567L135.113 477.74Z" fill="white"/>
<path d="M147.959 486.175L146.357 474.444L149.815 473.43L154.449 489.257L152.096 489.946L148.77 478.601L150.372 490.453L148.02 491.143L142.888 480.497L146.164 491.69L143.994 492.329L139.359 476.502L142.817 475.488L147.959 486.175Z" fill="white"/>
<path d="M156.063 478.845L159.48 477.841L160.139 480.102L156.722 481.106L158.081 485.74L162.381 484.482L163.04 486.743L156.255 488.731L151.621 472.903L158.405 470.916L159.064 473.177L154.765 474.434L156.063 478.845Z" fill="white"/>
<path d="M94.6992 378.576L100.327 376.924C103.887 375.879 106.209 377.339 107.274 380.959L110.63 392.406C111.695 396.026 110.519 398.51 106.97 399.554L101.341 401.207L94.6992 378.576ZM99.2017 380.766L103.938 396.928L105.945 396.34C107.071 396.006 107.588 395.225 107.112 393.613L103.664 381.841C103.187 380.229 102.335 379.844 101.21 380.168L99.2017 380.766Z" fill="white"/>
<path d="M107.891 374.704L111.45 373.66L118.082 396.291L114.523 397.335L107.891 374.704Z" fill="white"/>
<path d="M128.103 393.36C127.738 392.832 127.505 392.518 126.967 390.673L125.923 387.114C125.304 385.015 124.371 384.447 122.748 384.914L121.521 385.279L124.219 394.495L120.659 395.54L114.027 372.909L119.392 371.337C123.073 370.252 125.162 371.51 126.186 374.998L126.703 376.772C127.383 379.104 127.089 380.838 125.72 382.044C127.717 382.267 128.803 383.809 129.492 386.171L130.516 389.659C130.841 390.754 131.105 391.555 131.713 392.295L128.103 393.36ZM118.54 375.099L120.578 382.054L121.968 381.649C123.296 381.264 123.935 380.442 123.397 378.627L122.748 376.397C122.272 374.785 121.511 374.227 120.254 374.602L118.54 375.099Z" fill="white"/>
<path d="M133.378 377.593L138.256 376.164L139.199 379.398L134.321 380.828L136.268 387.459L142.413 385.654L143.356 388.889L133.652 391.728L127.02 369.097L136.724 366.258L137.667 369.492L131.522 371.297L133.378 377.593Z" fill="white"/>
<path d="M153.395 376.782L154.277 379.794C155.342 383.413 154.135 386.009 150.647 387.033C147.148 388.057 144.734 386.516 143.67 382.896L140.222 371.125C139.157 367.505 140.364 364.899 143.862 363.875C147.351 362.851 149.774 364.392 150.829 368.012L151.478 370.212L148.111 371.196L147.401 368.772C146.925 367.16 146.043 366.755 144.907 367.079C143.781 367.414 143.244 368.235 143.72 369.847L147.3 382.065C147.777 383.687 148.659 384.052 149.785 383.728C150.92 383.393 151.458 382.602 150.981 380.99L150.038 377.756L153.395 376.782Z" fill="white"/>
<path d="M150.363 362.263L161.356 359.039L162.299 362.273L158.577 363.358L164.266 382.755L160.707 383.799L155.018 364.403L151.296 365.488L150.363 362.263Z" fill="white"/>
<path d="M164.204 364.097C163.14 360.478 164.448 357.852 167.936 356.828C171.425 355.804 173.94 357.314 175.004 360.934L178.452 372.706C179.517 376.325 178.209 378.951 174.72 379.975C171.232 381 168.717 379.489 167.652 375.869L164.204 364.097ZM171.283 375.048C171.759 376.67 172.652 377.076 173.777 376.741C174.913 376.406 175.44 375.585 174.964 373.973L171.384 361.755C170.907 360.143 170.025 359.738 168.889 360.062C167.764 360.397 167.226 361.218 167.703 362.83L171.283 375.048Z" fill="white"/>
<path d="M189.779 375.282C189.414 374.754 189.18 374.44 188.643 372.595L187.598 369.036C186.98 366.937 186.047 366.369 184.424 366.836L183.197 367.201L185.895 376.417L182.335 377.462L175.703 354.831L181.068 353.259C184.749 352.174 186.838 353.432 187.862 356.919L188.379 358.694C189.059 361.026 188.765 362.76 187.395 363.966C189.393 364.189 190.478 365.73 191.168 368.093L192.192 371.581C192.517 372.676 192.78 373.477 193.389 374.217L189.779 375.282ZM180.216 357.021L182.254 363.976L183.643 363.571C184.972 363.185 185.611 362.364 185.073 360.549L184.424 358.319C183.948 356.706 183.187 356.149 181.93 356.524L180.216 357.021Z" fill="white"/>
<path d="M259.59 329.971C263.048 328.957 265.431 330.508 266.496 334.128L266.709 334.837L263.352 335.821L263.078 334.888C262.602 333.276 261.78 332.85 260.645 333.175C259.519 333.509 259.042 334.31 259.519 335.922C260.888 340.576 268.088 339.41 269.984 345.879C271.049 349.499 269.842 352.094 266.354 353.118C262.865 354.143 260.442 352.601 259.377 348.982L258.971 347.593L262.338 346.609L262.815 348.221C263.291 349.843 264.173 350.208 265.299 349.884C266.435 349.549 266.972 348.759 266.496 347.146C265.127 342.493 257.927 343.659 256.03 337.19C254.955 333.57 256.122 330.984 259.59 329.971Z" fill="white"/>
<path d="M281.442 339.259L282.324 342.27C283.389 345.89 282.182 348.486 278.693 349.51C275.195 350.534 272.781 348.993 271.717 345.373L268.269 333.601C267.204 329.981 268.411 327.376 271.909 326.352C275.398 325.328 277.821 326.869 278.876 330.488L279.525 332.689L276.158 333.672L275.448 331.249C274.972 329.637 274.089 329.231 272.954 329.556C271.828 329.89 271.291 330.712 271.767 332.324L275.347 344.541C275.824 346.164 276.706 346.529 277.831 346.204C278.967 345.87 279.505 345.079 279.028 343.467L278.085 340.232L281.442 339.259Z" fill="white"/>
<path d="M285.792 332.931L290.67 331.502L291.613 334.736L286.735 336.166L288.682 342.797L294.827 340.992L295.77 344.226L286.066 347.065L279.434 324.435L289.138 321.596L290.081 324.83L283.936 326.635L285.792 332.931Z" fill="white"/>
<path d="M296.338 326.261L301.145 342.656L297.941 343.589L291.309 320.958L295.771 319.65L303.396 332.121L299.421 318.575L302.585 317.643L309.217 340.273L305.567 341.348L296.338 326.261Z" fill="white"/>
<path d="M311.491 325.398L316.369 323.969L317.312 327.203L312.434 328.633L314.381 335.264L320.527 333.459L321.47 336.693L311.765 339.532L305.133 316.902L314.838 314.062L315.781 317.297L309.635 319.102L311.491 325.398Z" fill="white"/>
<path d="M391.441 291.603L402.434 288.379L403.377 291.613L399.655 292.698L405.344 312.095L401.785 313.139L396.096 293.743L392.374 294.827L391.441 291.603Z" fill="white"/>
<path d="M420.9 307.553L417.31 308.607L415.495 304.683L411.134 305.961L411.723 310.25L408.457 311.203L405.445 287.507L410.648 285.986L420.9 307.553ZM410.678 302.747L414.106 301.743L409.035 290.802L410.678 302.747Z" fill="white"/>
<path d="M424.562 296.684L424.075 299.077L426.113 306.032L422.554 307.077L415.922 284.446L419.481 283.401L422.371 293.257L424.136 282.033L427.695 280.988L425.708 292.527L434.338 303.619L430.687 304.694L424.562 296.684Z" fill="white"/>
<path d="M435.655 289.008L440.533 287.578L441.476 290.812L436.598 292.242L438.545 298.873L444.691 297.068L445.634 300.303L435.929 303.142L429.297 280.511L439.002 277.672L439.945 280.906L433.799 282.711L435.655 289.008Z" fill="white"/>
<path d="M491.793 218.247L483.964 191.561L441.637 203.961V203.971L56.9232 316.709L38.2539 322.184L46.0826 348.871L64.7418 343.406L64.7519 343.396L491.793 218.247Z" fill="url(#paint27_linear_193_450)"/>
<defs>
<linearGradient id="paint0_linear_193_450" x1="97.8602" y1="97.3643" x2="356.862" y2="172.462" gradientUnits="userSpaceOnUse">
<stop stop-color="#4F4E4A"/>
<stop offset="1" stop-color="#11110F"/>
</linearGradient>
<linearGradient id="paint1_linear_193_450" x1="31.6789" y1="235.047" x2="393.988" y2="63.4459" gradientUnits="userSpaceOnUse">
<stop stop-color="white"/>
<stop offset="1" stop-color="#E5E5E5"/>
</linearGradient>
<linearGradient id="paint2_linear_193_450" x1="378.551" y1="44.4395" x2="421.376" y2="24.1562" gradientUnits="userSpaceOnUse">
<stop stop-color="#4F4E4A"/>
<stop offset="1" stop-color="#11110F"/>
</linearGradient>
<linearGradient id="paint3_linear_193_450" x1="383.805" y1="41.9537" x2="385.113" y2="41.3343" gradientUnits="userSpaceOnUse">
<stop stop-color="white"/>
<stop offset="1" stop-color="#E5E5E5"/>
</linearGradient>
<linearGradient id="paint4_linear_193_450" x1="5.85809" y1="236.917" x2="25.224" y2="215.881" gradientUnits="userSpaceOnUse">
<stop stop-color="#4F4E4A"/>
<stop offset="1" stop-color="#11110F"/>
</linearGradient>
<linearGradient id="paint5_linear_193_450" x1="307.752" y1="37.4821" x2="333.896" y2="79.4751" gradientUnits="userSpaceOnUse">
<stop stop-color="white"/>
<stop offset="1" stop-color="#E5E5E5"/>
</linearGradient>
<linearGradient id="paint6_linear_193_450" x1="246.728" y1="75.4761" x2="272.872" y2="117.469" gradientUnits="userSpaceOnUse">
<stop stop-color="white"/>
<stop offset="1" stop-color="#E5E5E5"/>
</linearGradient>
<linearGradient id="paint7_linear_193_450" x1="185.699" y1="113.475" x2="211.842" y2="155.468" gradientUnits="userSpaceOnUse">
<stop stop-color="white"/>
<stop offset="1" stop-color="#E5E5E5"/>
</linearGradient>
<linearGradient id="paint8_linear_193_450" x1="124.675" y1="151.469" x2="150.818" y2="193.462" gradientUnits="userSpaceOnUse">
<stop stop-color="white"/>
<stop offset="1" stop-color="#E5E5E5"/>
</linearGradient>
<linearGradient id="paint9_linear_193_450" x1="221.388" y1="202.443" x2="249.076" y2="290.557" gradientUnits="userSpaceOnUse">
<stop stop-color="#4F4E4A"/>
<stop offset="1" stop-color="#11110F"/>
</linearGradient>
<linearGradient id="paint10_linear_193_450" x1="432.289" y1="181.103" x2="481.748" y2="166.602" gradientUnits="userSpaceOnUse">
<stop stop-color="#4F4E4A"/>
<stop offset="1" stop-color="#11110F"/>
</linearGradient>
<linearGradient id="paint11_linear_193_450" x1="434.723" y1="180.388" x2="436.111" y2="179.982" gradientUnits="userSpaceOnUse">
<stop stop-color="white"/>
<stop offset="1" stop-color="#E5E5E5"/>
</linearGradient>
<linearGradient id="paint12_linear_193_450" x1="139.409" y1="266.937" x2="193.202" y2="251.166" gradientUnits="userSpaceOnUse">
<stop stop-color="white"/>
<stop offset="1" stop-color="#E5E5E5"/>
</linearGradient>
<linearGradient id="paint13_linear_193_450" x1="208.85" y1="246.585" x2="262.642" y2="230.814" gradientUnits="userSpaceOnUse">
<stop stop-color="white"/>
<stop offset="1" stop-color="#E5E5E5"/>
</linearGradient>
<linearGradient id="paint14_linear_193_450" x1="278.292" y1="226.235" x2="332.099" y2="210.459" gradientUnits="userSpaceOnUse">
<stop stop-color="white"/>
<stop offset="1" stop-color="#E5E5E5"/>
</linearGradient>
<linearGradient id="paint15_linear_193_450" x1="347.735" y1="205.883" x2="401.541" y2="190.108" gradientUnits="userSpaceOnUse">
<stop stop-color="white"/>
<stop offset="1" stop-color="#E5E5E5"/>
</linearGradient>
<radialGradient id="paint16_radial_193_450" cx="0" cy="0" r="1" gradientUnits="userSpaceOnUse" gradientTransform="translate(103.964 281.451) rotate(-16.3339) scale(60.0091 23.1849)">
<stop stop-color="#11110F"/>
<stop offset="1" stop-color="white"/>
</radialGradient>
<radialGradient id="paint17_radial_193_450" cx="0" cy="0" r="1" gradientUnits="userSpaceOnUse" gradientTransform="translate(52.6656 222.74) rotate(-38.5137) scale(22.4203 32.6337)">
<stop stop-color="#11110F"/>
<stop offset="1" stop-color="white"/>
</radialGradient>
<linearGradient id="paint18_linear_193_450" x1="125.497" y1="304.797" x2="42.4732" y2="224.841" gradientUnits="userSpaceOnUse">
<stop stop-color="#4F4E4A"/>
<stop offset="1" stop-color="#11110F"/>
</linearGradient>
<linearGradient id="paint19_linear_193_450" x1="95.277" y1="265.086" x2="107.505" y2="306.808" gradientUnits="userSpaceOnUse">
<stop stop-color="#4F4E4A"/>
<stop offset="1" stop-color="#888885"/>
</linearGradient>
<linearGradient id="paint20_linear_193_450" x1="43.6165" y1="219.37" x2="53.963" y2="216.337" gradientUnits="userSpaceOnUse">
<stop stop-color="#4F4E4A"/>
<stop offset="1" stop-color="#888885"/>
</linearGradient>
<linearGradient id="paint21_linear_193_450" x1="63.3269" y1="286.615" x2="73.6734" y2="283.581" gradientUnits="userSpaceOnUse">
<stop stop-color="#4F4E4A"/>
<stop offset="1" stop-color="#888885"/>
</linearGradient>
<linearGradient id="paint22_linear_193_450" x1="117.882" y1="270.626" x2="128.229" y2="267.592" gradientUnits="userSpaceOnUse">
<stop stop-color="#4F4E4A"/>
<stop offset="1" stop-color="#888885"/>
</linearGradient>
<linearGradient id="paint23_linear_193_450" x1="192.104" y1="318.309" x2="424.395" y2="445.303" gradientUnits="userSpaceOnUse">
<stop stop-color="#4F4E4A"/>
<stop offset="1" stop-color="#11110F"/>
</linearGradient>
<linearGradient id="paint24_linear_193_450" x1="221.638" y1="339.888" x2="57.2897" y2="204.427" gradientUnits="userSpaceOnUse">
<stop stop-color="white" stop-opacity="0"/>
<stop offset="1" stop-color="white"/>
</linearGradient>
<linearGradient id="paint25_linear_193_450" x1="158.41" y1="283.667" x2="466.539" y2="445.402" gradientUnits="userSpaceOnUse">
<stop stop-color="white"/>
<stop offset="1" stop-color="#E5E5E5"/>
</linearGradient>
<linearGradient id="paint26_linear_193_450" x1="124.672" y1="347.932" x2="432.803" y2="509.667" gradientUnits="userSpaceOnUse">
<stop stop-color="white"/>
<stop offset="1" stop-color="#E5E5E5"/>
</linearGradient>
<linearGradient id="paint27_linear_193_450" x1="259.475" y1="249.204" x2="267.806" y2="280.764" gradientUnits="userSpaceOnUse">
<stop stop-color="#11110F"/>
<stop offset="1" stop-color="white"/>
</linearGradient>
</defs>
</svg>
