<svg width="411" height="411" viewBox="0 0 411 411" fill="none" xmlns="http://www.w3.org/2000/svg">
<path d="M205.059 365.541C293.723 365.541 365.599 293.676 365.599 205.026C365.599 116.376 293.723 44.5117 205.059 44.5117C116.396 44.5117 44.5195 116.376 44.5195 205.026C44.5195 293.676 116.396 365.541 205.059 365.541Z" fill="url(#paint0_radial_193_437)"/>
<path d="M205.06 354.64C287.703 354.64 354.699 287.655 354.699 205.025C354.699 122.395 287.703 55.4102 205.06 55.4102C122.417 55.4102 55.4219 122.395 55.4219 205.025C55.4219 287.655 122.417 354.64 205.06 354.64Z" fill="url(#paint1_radial_193_437)"/>
<path d="M205.057 338.022C278.52 338.022 338.074 278.478 338.074 205.026C338.074 131.574 278.52 72.0293 205.057 72.0293C131.593 72.0293 72.0391 131.574 72.0391 205.026C72.0391 278.478 131.593 338.022 205.057 338.022Z" fill="url(#paint2_radial_193_437)"/>
<path opacity="0.17" d="M337.723 195.342C328.839 129.995 280.184 74.8574 205.06 74.8574C131.732 74.8574 81.281 129.995 72.3672 195.342C77.3261 126.415 134.865 72.0488 205.06 72.0488C275.225 72.0387 332.764 126.405 337.723 195.342Z" fill="white"/>
<path opacity="0.17" d="M97.0195 213.371C104.25 266.582 143.87 311.478 205.03 311.478C264.729 311.478 305.809 266.582 313.07 213.371C309.034 269.492 262.184 313.76 205.03 313.76C147.906 313.76 101.056 269.492 97.0195 213.371Z" fill="white"/>
<path d="M277.062 277.03C316.835 237.264 316.835 172.791 277.062 133.024C237.29 93.2584 172.806 93.2584 133.034 133.024C93.2614 172.791 93.2614 237.264 133.034 277.03C172.806 316.796 237.29 316.796 277.062 277.03Z" fill="#1E1D19"/>
<path d="M205.058 311.934C264.111 311.934 311.983 264.069 311.983 205.025C311.983 145.982 264.111 98.1172 205.058 98.1172C146.005 98.1172 98.1328 145.982 98.1328 205.025C98.1328 264.069 146.005 311.934 205.058 311.934Z" fill="url(#paint3_radial_193_437)"/>
<path d="M205.057 296.258C255.227 296.258 295.898 255.593 295.898 205.431C295.898 155.268 255.227 114.604 205.057 114.604C154.886 114.604 114.215 155.268 114.215 205.431C114.215 255.593 154.886 296.258 205.057 296.258Z" fill="url(#paint4_radial_193_437)"/>
<path d="M208.271 224.672C219.129 222.91 226.503 212.681 224.74 201.825C222.978 190.969 212.748 183.597 201.89 185.359C191.032 187.121 183.659 197.349 185.421 208.205C187.183 219.061 197.414 226.434 208.271 224.672Z" fill="#1E1D19"/>
<path d="M205.058 0C91.8152 0 0 91.7906 0 205.026C0 318.251 91.8051 410.051 205.058 410.051C318.301 410.051 410.116 318.261 410.116 205.026C410.106 91.8007 318.301 0 205.058 0ZM205.058 403.806C95.2631 403.806 6.24674 314.814 6.24674 205.026C6.24674 95.2481 95.2631 6.25593 205.058 6.25593C314.853 6.25593 403.859 95.2481 403.859 205.026C403.849 314.814 314.843 403.806 205.058 403.806Z" fill="url(#paint5_linear_193_437)"/>
<path d="M205.057 6.25586C95.2625 6.25586 6.24609 95.248 6.24609 205.026C6.24609 314.813 95.2625 403.806 205.057 403.806C314.852 403.806 403.859 314.813 403.859 205.026C403.848 95.248 314.842 6.25586 205.057 6.25586ZM205.057 25.1554C237.681 25.1554 264.118 51.5986 264.118 84.2064C264.118 116.824 237.67 143.257 205.057 143.257C172.434 143.257 145.997 116.814 145.997 84.2064C145.987 51.5986 172.434 25.1554 205.057 25.1554ZM33.8799 149.493C43.9599 118.477 77.2828 101.504 108.304 111.582C139.324 121.661 156.31 154.968 146.23 185.984C136.15 217.01 102.828 233.983 71.8067 223.905C40.7859 213.827 23.7999 180.509 33.8799 149.493ZM181.774 337.606C162.588 363.989 125.665 369.849 99.2681 350.676C72.8816 331.503 67.0202 294.576 86.1966 268.183C105.373 241.801 142.306 235.961 168.703 255.124C195.089 274.307 200.94 311.224 181.774 337.606ZM170.518 205.026C170.518 185.964 185.983 170.502 205.047 170.502C224.112 170.502 239.577 185.964 239.577 205.026C239.577 224.108 224.112 239.55 205.047 239.55C185.983 239.55 170.518 224.108 170.518 205.026ZM310.837 350.686C284.45 369.859 247.507 363.999 228.331 337.617C209.154 311.234 215.016 274.307 241.402 255.144C267.789 235.971 304.722 241.811 323.888 268.203C343.085 294.575 337.233 331.513 310.837 350.686ZM338.298 223.905C307.277 233.983 273.954 217.01 263.874 185.984C253.794 154.968 270.77 121.661 301.801 111.582C332.822 101.504 366.135 118.477 376.215 149.493C386.295 180.509 369.319 213.827 338.298 223.905Z" fill="url(#paint6_linear_193_437)"/>
<defs>
<radialGradient id="paint0_radial_193_437" cx="0" cy="0" r="1" gradientUnits="userSpaceOnUse" gradientTransform="translate(205.057 205.027) scale(160.543 160.517)">
<stop stop-color="#4F4E4A"/>
<stop offset="0.4951" stop-color="#4D4C48"/>
<stop offset="0.6734" stop-color="#464542"/>
<stop offset="0.8005" stop-color="#3B3A37"/>
<stop offset="0.9025" stop-color="#2A2927"/>
<stop offset="0.9896" stop-color="#141412"/>
<stop offset="1" stop-color="#11110F"/>
</radialGradient>
<radialGradient id="paint1_radial_193_437" cx="0" cy="0" r="1" gradientUnits="userSpaceOnUse" gradientTransform="translate(205.058 205.025) scale(149.64 149.617)">
<stop stop-color="#4F4E4A"/>
<stop offset="0.3654" stop-color="#4D4C48"/>
<stop offset="0.5777" stop-color="#444340"/>
<stop offset="0.7509" stop-color="#363632"/>
<stop offset="0.9021" stop-color="#222220"/>
<stop offset="1" stop-color="#11110F"/>
</radialGradient>
<radialGradient id="paint2_radial_193_437" cx="0" cy="0" r="1" gradientUnits="userSpaceOnUse" gradientTransform="translate(205.054 205.026) scale(133.016 132.995)">
<stop offset="0.4055" stop-color="#4F4E4A"/>
<stop offset="0.6493" stop-color="#4D4C48"/>
<stop offset="0.7687" stop-color="#454441"/>
<stop offset="0.861" stop-color="#383734"/>
<stop offset="0.939" stop-color="#262523"/>
<stop offset="1" stop-color="#11110F"/>
</radialGradient>
<radialGradient id="paint3_radial_193_437" cx="0" cy="0" r="1" gradientUnits="userSpaceOnUse" gradientTransform="translate(205.056 205.026) scale(106.93 106.913)">
<stop offset="0.2431" stop-color="#4F4E4A"/>
<stop offset="0.4734" stop-color="#4C4B47"/>
<stop offset="0.6475" stop-color="#42423E"/>
<stop offset="0.8031" stop-color="#32322F"/>
<stop offset="0.9472" stop-color="#1B1B19"/>
<stop offset="1" stop-color="#11110F"/>
</radialGradient>
<radialGradient id="paint4_radial_193_437" cx="0" cy="0" r="1" gradientUnits="userSpaceOnUse" gradientTransform="translate(205.054 205.432) scale(90.8376 90.8232)">
<stop stop-color="#4F4E4A"/>
<stop offset="0.2671" stop-color="#4B4A47"/>
<stop offset="0.5128" stop-color="#403F3C"/>
<stop offset="0.7501" stop-color="#2E2D2A"/>
<stop offset="0.9809" stop-color="#141311"/>
<stop offset="1" stop-color="#11110F"/>
</radialGradient>
<linearGradient id="paint5_linear_193_437" x1="302.961" y1="345.694" x2="91.9582" y2="42.4338" gradientUnits="userSpaceOnUse">
<stop stop-color="white"/>
<stop offset="0.4401" stop-color="#E5E5E5"/>
<stop offset="1" stop-color="#C4C7CE"/>
</linearGradient>
<linearGradient id="paint6_linear_193_437" x1="75.9319" y1="93.1976" x2="349.26" y2="330.008" gradientUnits="userSpaceOnUse">
<stop stop-color="white"/>
<stop offset="0.4401" stop-color="#E5E5E5"/>
<stop offset="1" stop-color="#C4C7CE"/>
</linearGradient>
</defs>
</svg>
