<svg width="80" height="70" viewBox="0 0 80 70" fill="none" xmlns="http://www.w3.org/2000/svg">
<path d="M79.9999 5.74116C79.9999 25.2478 79.9999 44.7523 79.9999 64.2589C79.9665 64.2961 79.9144 64.3313 79.904 64.3747C78.8499 68.2359 76.5394 69.998 72.5228 70C61.3561 70 50.1915 70 39.0249 70C28.354 70 17.6811 70.0062 7.01029 69.9959C3.9707 69.9918 1.81654 68.5689 0.541536 65.8534C0.304036 65.3488 0.179036 64.7925 0.00195312 64.261C0.00195312 44.7544 0.00195312 25.2498 0.00195312 5.74323C0.0332031 5.70393 0.0832031 5.66877 0.0957031 5.62534C1.13529 1.77242 3.46029 2.87513e-05 7.47487 2.87513e-05C17.2103 2.87513e-05 26.9457 2.87513e-05 36.679 2.87513e-05C48.7561 2.87513e-05 60.8353 -0.00203938 72.9124 0.00209688C76.479 0.00416501 79.0499 2.03714 79.8665 5.47437C79.8894 5.5695 79.954 5.65223 79.9999 5.74116ZM69.1999 10.3655C68.8186 10.3655 68.4853 10.3655 68.1519 10.3655C54.2478 10.3655 40.3415 10.3655 26.4374 10.3614C26.0249 10.3614 25.5957 10.3469 25.2061 10.2352C24.4769 10.0263 24.0978 9.37486 24.1811 8.61586C24.2603 7.88788 24.8144 7.35016 25.5707 7.28191C25.804 7.26123 26.0394 7.26951 26.2728 7.26951C40.9332 7.26951 55.5915 7.26951 70.2519 7.26951C71.9228 7.26951 72.3644 7.71209 72.3644 9.38727C72.3644 21.5396 72.3644 33.6899 72.3644 45.8422C72.3644 47.5484 71.9082 48.0055 70.1999 48.0055C50.0707 48.0055 29.9436 48.0055 9.81445 48.0055C8.08945 48.0055 7.63529 47.5588 7.63529 45.8608C7.63529 35.3857 7.63529 24.9127 7.63529 14.4376C7.63529 14.1378 7.63529 13.8379 7.63529 13.7365C6.04779 13.3788 4.60404 13.052 3.17904 12.7294C3.17904 25.8144 3.17904 39.0318 3.17904 52.3113C3.56445 52.3113 3.89779 52.3113 4.2332 52.3113C19.4145 52.3113 34.5957 52.3113 49.7769 52.3113C50.0624 52.3113 50.352 52.301 50.6353 52.3237C51.429 52.3878 51.9999 52.9524 52.054 53.7094C52.1103 54.4973 51.6769 55.1364 50.8978 55.3163C50.5228 55.4032 50.1249 55.4032 49.7353 55.4032C34.554 55.4073 19.3728 55.4073 4.19154 55.4073C3.86029 55.4073 3.53112 55.4073 3.12695 55.4073C3.12695 55.7403 3.12695 55.9926 3.12695 56.2449C3.12695 58.3854 3.21654 60.5321 3.10404 62.6685C2.97279 65.1689 4.77279 66.9433 7.38737 66.9351C26.7082 66.8751 46.029 66.904 65.3519 66.904C67.929 66.904 70.5082 66.9144 73.0853 66.8999C75.2894 66.8896 76.854 65.3281 76.8749 63.1318C76.8874 61.7647 76.8769 60.3977 76.8769 59.0307C76.8769 57.8498 76.8769 56.6709 76.8769 55.4073C76.5228 55.4073 76.2457 55.4073 75.9665 55.4073C73.3374 55.4073 70.7061 55.4073 68.0769 55.4073C66.9832 55.4073 65.8894 55.4073 64.7957 55.4073C64.5874 55.4073 64.3769 55.4135 64.1728 55.3866C63.2728 55.2667 62.6624 54.5863 62.7103 53.7673C62.7582 52.9318 63.404 52.3217 64.3269 52.3196C68.1811 52.3072 72.0353 52.3134 75.8874 52.3134C76.1915 52.3134 76.4957 52.3134 76.8374 52.3134C76.854 52.0011 76.8749 51.7736 76.8749 51.5482C76.8769 36.6887 76.879 21.8271 76.8749 6.96756C76.8749 4.63057 75.3165 3.10222 72.9499 3.10222C53.1082 3.10016 33.2665 3.10016 13.4249 3.10222C13.1832 3.10222 12.9395 3.13118 12.6332 3.14979C12.779 3.43933 12.8832 3.64201 12.9811 3.84675C14.2832 6.58909 13.629 9.81744 11.3228 11.8132C10.9103 12.1689 10.7499 12.5143 10.7499 13.0561C10.7665 23.3761 10.7624 33.6961 10.7624 44.014C10.7624 44.289 10.7624 44.5641 10.7624 44.8702C30.2874 44.8702 49.7249 44.8702 69.202 44.8702C69.1999 33.3838 69.1999 21.9388 69.1999 10.3655ZM10.5061 6.78143C10.5207 4.77741 8.89779 3.12291 6.88945 3.09809C4.8207 3.07327 3.14362 4.68434 3.12695 6.71525C3.11029 8.71926 4.7332 10.3717 6.7457 10.3986C8.80612 10.4275 10.4895 8.8082 10.5061 6.78143Z" fill="#0D1220"/>
<path d="M28.1938 62.7036C28.1084 63.9776 28.4688 65.4625 26.6167 65.6176C25.5729 65.7045 25.2229 65.0406 24.9771 62.7036C24.7104 62.7036 24.4334 62.7036 24.1563 62.7036C19.3667 62.7036 14.5771 62.7036 9.78752 62.7036C9.55419 62.7036 9.31669 62.7161 9.08544 62.6912C8.20002 62.5982 7.60627 61.924 7.64377 61.0719C7.67919 60.2529 8.28544 59.6428 9.1646 59.618C10.2313 59.587 11.2979 59.6077 12.3667 59.6077C16.2709 59.6077 20.175 59.6077 24.0792 59.6077C24.3604 59.6077 24.6438 59.6077 25.0396 59.6077C25.0396 59.1527 25.025 58.7515 25.0417 58.3502C25.0875 57.3451 25.7229 56.675 26.6125 56.675C27.525 56.675 28.1271 57.3244 28.1584 58.3523C28.1709 58.7349 28.1604 59.1175 28.1604 59.6077C28.5271 59.6077 28.8271 59.6077 29.1292 59.6077C42.7688 59.6077 56.4084 59.6077 70.0459 59.6077C70.3313 59.6077 70.6209 59.5932 70.9042 59.618C71.7292 59.6862 72.3167 60.2819 72.3521 61.0678C72.3896 61.895 71.8375 62.563 70.9917 62.6809C70.7104 62.7202 70.4209 62.7036 70.1334 62.7036C56.5209 62.7036 42.9063 62.7036 29.2938 62.7036C28.9604 62.7036 28.625 62.7036 28.1938 62.7036Z" fill="#0D1220"/>
<path d="M36.2646 26.9229C36.2646 25.5063 36.2542 24.0896 36.2667 22.6729C36.2771 21.5789 36.7979 21.0577 37.8979 21.0598C38.9875 21.0598 40.0959 20.9853 41.1646 21.1508C43.4584 21.5044 45.0042 23.2768 45.2334 25.9592C45.3334 27.1277 45.1729 28.3913 44.8104 29.5122C44.1167 31.661 42.3438 32.7902 40.0625 32.8233C39.3604 32.8337 38.6584 32.8378 37.9563 32.8316C36.8313 32.8213 36.2834 32.298 36.2688 31.173C36.2479 29.7563 36.2646 28.3396 36.2646 26.9229ZM39.1167 30.0003C40.3354 30.1099 41.4417 30.1058 42.0313 28.9104C42.7438 27.471 42.7396 26.0026 41.8667 24.6418C41.2167 23.6263 40.1438 23.8125 39.1167 23.8931C39.1167 25.9468 39.1167 27.9446 39.1167 30.0003Z" fill="#0D1220"/>
<path d="M51.5436 20.7826C52.8436 20.948 53.977 21.3575 54.9811 22.1021C55.6561 22.6025 55.7978 23.374 55.377 24.0109C54.9374 24.6769 54.177 24.7658 53.3811 24.3977C52.7186 24.0916 51.9957 23.862 51.277 23.7545C51.0186 23.7152 50.6915 24.1309 50.3957 24.3398C50.6249 24.5425 50.8228 24.8113 51.0895 24.9354C51.8186 25.2704 52.5832 25.529 53.3207 25.8474C55.179 26.6457 56.1561 28.1389 55.8853 29.7314C55.5874 31.479 54.0603 32.817 52.0978 32.9515C50.3853 33.0694 48.8645 32.5482 47.6186 31.3466C46.904 30.6579 46.8478 29.841 47.4436 29.2371C48.0228 28.6518 48.7457 28.7304 49.5332 29.2929C50.0645 29.6714 50.6936 29.9692 51.3249 30.1347C51.704 30.2339 52.2124 30.1016 52.5853 29.9196C53.277 29.5804 53.2728 29.0448 52.6186 28.6332C52.3374 28.4554 52.0186 28.3292 51.7082 28.201C51.0374 27.9238 50.3603 27.6591 49.6853 27.3944C48.3665 26.8774 47.6228 25.9074 47.5749 24.5176C47.5249 23.1382 48.177 22.0607 49.4228 21.4465C50.0749 21.1218 50.8332 20.9977 51.5436 20.7826Z" fill="#0D1220"/>
<path d="M34.2603 31.5163C34.2415 32.2153 33.9311 32.6496 33.3353 32.8751C32.754 33.0964 32.2623 32.9123 31.8478 32.4987C31.7248 32.3746 31.5915 32.2071 31.5686 32.0437C31.3769 30.749 30.5311 30.505 29.404 30.6808C29.2769 30.7015 29.1415 30.7015 29.0144 30.6808C27.854 30.4905 27.0686 30.7594 26.7623 32.0664C26.5748 32.8647 25.7228 33.1439 25.0019 32.8689C24.2457 32.5814 23.8978 31.8555 24.2061 31.0386C25.3519 28.0026 26.5165 24.9727 27.6894 21.9471C27.9457 21.2873 28.4707 20.9192 29.1978 20.9213C29.9228 20.9233 30.4478 21.2894 30.704 21.9512C31.8728 24.9789 33.0248 28.0129 34.1748 31.0468C34.2332 31.2123 34.2394 31.4005 34.2603 31.5163ZM28.4415 27.8081C28.9707 27.8081 29.4207 27.8081 29.9436 27.8081C29.6769 27.1505 29.454 26.5942 29.1748 25.9034C28.8957 26.6314 28.679 27.196 28.4415 27.8081Z" fill="#0D1220"/>
<path d="M20.4457 8.88672C20.3936 9.69949 19.629 10.3882 18.8207 10.3489C17.952 10.3075 17.277 9.54852 17.3395 8.68404C17.3999 7.83611 18.1186 7.22187 18.977 7.27978C19.8124 7.33769 20.4978 8.08842 20.4457 8.88672Z" fill="#0D1220"/>
<path d="M57.3874 52.3175C58.2582 52.3175 58.9249 52.9648 58.929 53.8169C58.9353 54.6669 58.2707 55.3639 57.4332 55.3845C56.579 55.4052 55.8186 54.6648 55.8332 53.8252C55.8457 52.9896 56.5395 52.3175 57.3874 52.3175Z" fill="#0D1220"/>
</svg>
