<svg width="79" height="71" viewBox="0 0 79 71" fill="none" xmlns="http://www.w3.org/2000/svg">
<path d="M0.425781 22.6427C0.852399 21.2958 1.25464 19.9505 2.2191 18.8428C3.70007 17.1424 5.54977 16.1353 7.78494 16.12C12.9882 16.082 18.1914 16.1703 23.3961 16.1871C33.2784 16.2191 42.3882 13.6639 50.5519 7.99907C50.788 7.83604 50.9587 7.44904 50.9907 7.14888C51.0623 6.47086 50.9831 5.77608 51.041 5.09654C51.2512 2.63892 53.2777 0.805985 55.6835 0.863883C58.071 0.921781 59.9832 2.78824 60.1386 5.21691C60.1569 5.49574 60.1523 5.77456 60.1523 6.05491C60.1523 11.1835 60.1523 16.312 60.1523 21.4391C60.1523 21.7164 60.1523 21.9952 60.1523 22.1674C61.167 22.6808 62.1894 23.0434 63.032 23.656C65.5825 25.5087 66.6476 28.0836 66.0823 31.1766C65.5368 34.1706 63.6932 36.1543 60.7816 37.0716C60.262 37.2361 60.1386 37.4586 60.1401 37.9675C60.1584 43.2728 60.1569 48.5796 60.1493 53.8849C60.1462 56.0926 59.0065 57.8052 57.1416 58.4558C54.3564 59.4294 51.4996 57.7077 51.0699 54.7884C51.0227 54.4639 50.9602 54.118 51.0227 53.8041C51.3091 52.343 50.6113 51.5613 49.4091 50.801C43.7275 47.2037 37.5781 44.932 30.9366 43.9767C29.2393 43.7329 27.5252 43.5973 25.7197 43.4023C25.7197 44.7842 25.7197 46.0214 25.7197 47.2571C25.7197 50.8864 23.9842 52.6431 20.3839 52.6599C20.1599 52.6614 19.9359 52.6599 19.6251 52.6599C19.6251 52.9875 19.6251 53.2587 19.6251 53.5284C19.6251 57.2354 19.6419 60.9408 19.619 64.6479C19.5992 67.8109 17.4966 70.3691 14.5971 70.8232C10.6799 71.4356 7.45279 68.6459 7.4406 64.5869C7.42079 58.1374 7.43451 51.6893 7.43451 45.2413C7.43451 44.6852 7.43451 44.1275 7.43451 43.6933C6.28111 43.2408 5.14143 42.9376 4.14955 42.3738C2.09416 41.2037 0.90725 39.3692 0.543101 37.0182C0.523294 36.8963 0.465396 36.779 0.425781 36.6602C0.425781 31.9872 0.425781 27.3157 0.425781 22.6427ZM50.9694 48.188C50.9694 35.8953 50.9694 23.7291 50.9694 11.543C36.7645 18.3339 40.3557 17.4045 22.7196 19.2968C22.7196 26.3086 22.7196 33.3234 22.7196 40.3809C32.8701 40.2758 42.2785 42.7227 50.9694 48.188ZM19.5733 40.4525C19.5733 33.3128 19.5733 26.2492 19.5733 19.1597C15.5936 19.1597 11.6626 19.085 7.73619 19.1871C5.35474 19.2496 3.54314 21.1587 3.502 23.5569C3.43344 27.7164 3.43344 31.8805 3.50048 36.0401C3.54009 38.4687 5.38369 40.3733 7.79866 40.4297C11.7022 40.518 15.6088 40.4525 19.5733 40.4525ZM57.105 29.88C57.105 21.9327 57.1066 13.9854 57.1005 6.03815C57.1005 5.68619 57.0913 5.31899 56.9969 4.98532C56.8003 4.29511 56.2792 3.92639 55.5829 3.92639C54.8866 3.92639 54.3716 4.29511 54.1644 4.98227C54.0791 5.26719 54.0608 5.58106 54.0608 5.88274C54.0578 21.8306 54.0578 37.7755 54.0593 53.7219C54.0593 54.9575 54.6337 55.6934 55.5814 55.6934C56.5291 55.6934 57.0989 54.9575 57.1066 53.7234C57.1081 53.5451 57.1066 53.3684 57.1066 53.1901C57.105 45.4196 57.105 37.6505 57.105 29.88ZM10.4818 43.5531C10.4818 43.8076 10.4818 44.0056 10.4818 44.2052C10.4818 50.9824 10.4818 57.7595 10.4833 64.5366C10.4833 64.7393 10.4818 64.9434 10.5046 65.1446C10.7271 67.1999 12.8541 68.4676 14.7251 67.6311C16.0248 67.0506 16.5824 65.9856 16.5809 64.5823C16.5748 57.7793 16.5778 50.9778 16.5778 44.1748C16.5778 43.9797 16.5778 43.7832 16.5778 43.5516C14.5301 43.5531 12.56 43.5531 10.4818 43.5531ZM60.1523 25.5818C60.1523 27.0399 60.1523 28.4325 60.1523 29.8236C60.1523 31.2223 60.1523 32.6195 60.1523 34.0563C62.0797 33.3524 63.2453 31.623 63.192 29.6697C63.1432 27.8063 61.9152 26.1212 60.1523 25.5818ZM19.6541 49.6111C20.1203 49.6111 20.521 49.6202 20.9217 49.6096C22.0629 49.5791 22.6419 49.0032 22.6678 47.8604C22.6831 47.2022 22.6709 46.544 22.6709 45.8843C22.6709 45.0889 22.6709 44.2921 22.6709 43.5409C21.5876 43.5409 20.6353 43.5409 19.6541 43.5409C19.6541 45.5719 19.6541 47.5389 19.6541 49.6111Z" fill="#0D1220"/>
<path d="M78.4357 30.2609C77.9634 31.1095 77.2305 31.367 76.2843 31.3411C74.5123 31.2924 72.7388 31.3488 70.9653 31.3183C69.7266 31.297 68.9846 30.2441 69.4417 29.2141C69.7174 28.594 70.2309 28.2923 70.8891 28.2878C72.8653 28.2725 74.8399 28.2862 76.8161 28.2802C77.5977 28.2786 78.0456 28.7631 78.4357 29.3452C78.4357 29.6514 78.4357 29.9562 78.4357 30.2609Z" fill="#0D1220"/>
<path d="M68.5459 19.4142C68.7638 19.0577 68.9268 18.6478 69.2102 18.3553C70.5358 16.9871 71.8842 15.6432 73.2448 14.3101C73.967 13.6031 74.8629 13.5635 75.4891 14.1546C76.1488 14.7763 76.1336 15.692 75.3916 16.4508C74.0432 17.8312 72.6719 19.1903 71.2976 20.5432C70.7841 21.0491 70.1594 21.2289 69.4875 20.8998C68.9207 20.621 68.6221 20.1364 68.5459 19.4142Z" fill="#0D1220"/>
<path d="M68.5278 40.1005C68.6711 38.9227 69.8488 38.2112 70.827 38.7277C71.0479 38.8435 71.2475 39.0126 71.4273 39.1894C72.7254 40.4753 74.0236 41.7643 75.308 43.064C76.1064 43.873 76.178 44.7613 75.5289 45.421C74.8951 46.0655 73.9581 46 73.1719 45.226C71.8524 43.9248 70.5329 42.6221 69.2485 41.2859C68.9346 40.9598 68.764 40.4997 68.5278 40.1005Z" fill="#0D1220"/>
<path d="M27.2206 25.2343C26.4953 25.2557 25.7701 24.6675 25.732 23.7716C25.6954 22.9184 26.3277 22.2663 27.3348 22.1871C31.665 21.8442 35.9388 21.1997 40.1136 19.961C41.1344 19.6578 41.9587 20.089 42.1994 20.9362C42.4493 21.8153 41.9876 22.5741 40.9729 22.8788C36.5818 24.1906 32.084 24.8885 27.2206 25.2343Z" fill="#0D1220"/>
<path d="M47.9511 19.1308C47.9557 19.9277 47.2457 20.6453 46.4473 20.6499C45.6504 20.6544 44.9328 19.9444 44.9282 19.146C44.9237 18.3492 45.6337 17.6331 46.4321 17.627C47.2274 17.6224 47.9466 18.3324 47.9511 19.1308Z" fill="#0D1220"/>
</svg>
