<svg width="59" height="74" viewBox="0 0 59 74" fill="none" xmlns="http://www.w3.org/2000/svg">
<path d="M42.5666 72.2046C39.3843 66.7339 36.4837 61.7478 33.4455 56.5259C30.8002 58.9617 28.0959 59.1221 25.3851 56.4931C23.6663 59.4528 22.0589 62.2225 20.4481 64.9889C19.3251 66.9205 18.248 68.8816 17.04 70.7575C16.6831 71.3108 15.953 71.6219 15.1935 72.1915C13.825 69.5298 12.6857 67.3101 11.494 64.9889C8.91741 65.1068 6.32775 65.2246 3.95417 65.3327C2.79193 64.3669 3.28957 63.6106 3.73809 62.8347C6.36376 58.3134 8.98288 53.7922 11.7166 49.0712C11.2419 48.6391 10.8294 48.1512 10.3154 47.8206C9.67695 47.4113 8.95997 47.1265 8.27245 46.7958C4.16697 44.8348 3.75119 44.3011 4.3012 39.7209C4.56312 37.5405 4.13751 35.7693 2.76574 34.1291C2.31394 33.5889 1.98328 32.9505 1.58386 32.3645C0.542762 30.8421 0.536214 29.3329 1.56422 27.7941C5.08367 22.5362 4.60895 24.4711 4.16042 18.326C4.01965 16.4009 4.72681 14.908 6.51436 14.2729C9.98797 13.0452 12.2633 10.7895 13.5107 7.32895C14.1524 5.54794 15.6747 4.64762 17.5605 5.0143C21.1847 5.71491 24.2687 4.83751 27.0777 2.47375C28.5314 1.24931 30.3124 1.2624 31.7529 2.49339C34.5586 4.88662 37.6655 5.68872 41.2767 5.0143C43.1755 4.66072 44.6782 5.58396 45.3101 7.35841C46.5476 10.8386 48.8623 13.0517 52.313 14.2925C54.0187 14.9048 54.9223 16.3485 54.5982 18.195C53.9598 21.852 54.7848 25.0146 57.2206 27.853C58.4188 29.251 58.3599 31.0124 57.1649 32.3776C54.7291 35.1669 53.986 38.2968 54.5982 41.8915C54.9223 43.8035 53.9598 45.1229 52.2344 45.9348C51.1016 46.4685 49.9623 46.9956 48.8688 47.6078C48.237 47.9614 47.6935 48.4721 47.0256 48.9795C49.6579 53.5172 52.1689 57.8453 54.68 62.1734C54.9256 62.599 55.2726 62.9984 55.3839 63.4567C55.505 63.9707 55.4134 64.5371 55.4134 65.1461C52.5814 65.1461 49.9885 65.1461 47.3334 65.1461C45.6244 67.1628 45.4673 70.4498 42.5666 72.2046ZM42.3538 52.9475C43.6699 50.623 44.4687 48.256 46.0566 46.6747C47.6444 45.0934 50.018 44.2979 52.3654 42.9752C51.0951 38.1495 52.2966 33.805 56.0714 30.0269C52.1362 26.2881 51.2162 21.8684 52.3195 17.131C49.9885 15.8247 47.6608 15.0554 46.1122 13.5068C44.5276 11.919 43.7059 9.57157 42.5469 7.55157C40.121 7.55157 37.6655 8.01319 35.4949 7.42062C33.3309 6.83131 31.4484 5.18454 29.1239 3.81605C25.6012 7.52538 21.0898 8.32094 15.9792 7.24383C14.6533 12.4002 11.458 15.422 6.38995 16.784C7.61439 21.9044 6.6224 26.3045 2.66425 30.1153C6.81883 33.7952 7.45397 38.3492 6.45871 43.4565C11.7592 44.6645 14.6304 48.089 16.0218 52.607C18.7653 52.607 21.2207 52.1454 23.3881 52.738C25.5488 53.3306 27.4248 54.9773 29.7394 56.3491C33.2065 52.6529 37.5477 51.6543 42.3538 52.9475ZM13.0229 51.7002C10.7737 55.583 8.76681 59.0435 6.6977 62.6186C8.92068 62.6186 10.9112 62.6186 13.0196 62.6186C13.9265 64.3702 14.8301 66.1119 15.8417 68.0697C18.4117 63.6335 20.8213 59.4659 23.3586 55.0854C21.7315 55.0854 20.3892 55.0003 19.06 55.1017C16.4572 55.2982 14.0673 55.1672 13.0229 51.7002ZM52.1133 62.6121C50.0147 58.9977 48.0111 55.5437 45.8274 51.782C44.7634 54.9741 42.4946 55.416 39.8427 55.0886C39.0864 54.997 38.3236 54.9315 37.5608 54.9217C36.9355 54.9151 36.3069 55.0133 35.4393 55.0821C38.006 59.4953 40.4353 63.6761 42.9758 68.0468C44.03 66.03 44.9336 64.308 45.8208 62.6088C47.9161 62.6121 49.8674 62.6121 52.1133 62.6121Z" fill="#0D1220" stroke="#0D1220" stroke-width="1.5"/>
<path d="M29.363 48.3149C19.191 48.292 11.0357 40.1498 11.0422 30.0301C11.0488 19.9367 19.2663 11.8076 29.4383 11.8207C39.5972 11.8338 47.7689 19.9924 47.7591 30.1054C47.7492 40.1989 39.5285 48.3378 29.363 48.3149ZM29.3565 45.8988C38.1763 45.9151 45.3527 38.8173 45.3593 30.0727C45.3658 21.351 38.1436 14.1877 29.3663 14.2106C20.6446 14.2303 13.5108 21.3019 13.4453 29.9843C13.3831 38.7093 20.5529 45.8857 29.3565 45.8988Z" fill="#0D1220" stroke="#0D1220" stroke-width="1.5"/>
<path d="M29.4121 23.1255C30.6693 24.6151 31.7039 25.8396 32.758 27.0902C34.3033 26.0327 35.518 25.1095 36.8242 24.3532C37.4037 24.016 38.1796 24.0127 38.8672 23.8588C38.9948 24.5038 39.3157 25.1848 39.2142 25.7904C38.6969 28.8483 38.0814 31.8897 37.4725 34.9312C37.3808 35.3928 37.1582 35.8315 36.9683 36.3652C31.897 36.3652 26.9174 36.3652 21.7152 36.3652C21.5122 35.4779 21.3059 34.6529 21.139 33.8181C20.5955 31.0974 20.0291 28.3768 19.5675 25.6431C19.4726 25.0866 19.6428 24.0782 19.9571 23.9505C20.4678 23.7443 21.2961 23.9407 21.8265 24.2484C23.1393 25.0145 24.3605 25.9378 25.7977 26.9199C26.8781 25.7872 27.9716 24.638 29.4121 23.1255ZM29.7886 26.6384C29.4972 26.5827 29.2026 26.5303 28.9112 26.4747C28.0633 27.7188 27.2121 28.9629 26.387 30.1709C24.8319 29.1953 23.7679 28.5274 22.4092 27.6762C22.8774 30.0432 23.2703 32.0403 23.6533 33.9654C27.618 33.9654 31.3896 33.9654 35.184 33.9654C35.5769 31.8963 35.9501 29.9516 36.379 27.6959C34.9941 28.5536 33.9105 29.228 32.4241 30.1513C31.5369 28.9661 30.6628 27.8006 29.7886 26.6384Z" fill="#0D1220" stroke="#0D1220" stroke-width="1.5"/>
</svg>
