<svg width="34" height="35" viewBox="0 0 34 35" fill="none" xmlns="http://www.w3.org/2000/svg">
<path d="M25.6883 34.4101C24.8227 34.445 23.7932 34.0533 22.7706 33.6511C17.1944 31.4568 12.4703 28.033 8.42233 23.6518C5.3818 20.3621 2.91739 16.6892 1.20724 12.5382C0.791076 11.5293 0.410536 10.487 0.182364 9.42354C-0.12616 7.98436 0.170236 6.58683 0.910089 5.30444C1.38917 4.47425 1.88342 3.6524 2.38752 2.83737C3.91802 0.362721 7.21855 -0.0500984 9.30318 1.9837C10.6313 3.27973 11.948 4.58939 13.2465 5.91496C15.1636 7.87301 14.9544 10.8885 12.8046 12.5769C12.0064 13.2041 11.9048 13.9797 12.5188 14.7781C14.5981 17.486 16.9882 19.8849 19.6945 21.9672C20.5677 22.6391 21.4721 22.555 22.2104 21.7339C24.0919 19.6418 26.8989 19.5645 28.8934 21.5521C30.0289 22.6838 31.1637 23.8177 32.294 24.9547C34.3907 27.0634 34.0814 30.2539 31.6216 31.9158C30.8688 32.4248 30.1222 32.9429 29.3618 33.4398C28.3938 34.0746 27.096 34.4344 25.6883 34.4101ZM20.9763 25.4387C19.8703 25.4303 18.9342 25.1667 18.1185 24.5577C15.0651 22.2755 12.4006 19.6009 10.0847 16.5756C8.50874 14.5175 8.82485 11.8793 10.8473 10.2507C11.6963 9.56671 11.76 8.71456 10.9997 7.94724C9.74587 6.68303 8.48524 5.42639 7.22006 4.1743C6.50523 3.46682 5.48717 3.59029 4.96488 4.44244C4.50323 5.19536 4.05067 5.95283 3.60115 6.71333C3.069 7.61471 2.96288 8.5767 3.32598 9.55156C3.73002 10.637 4.1424 11.724 4.63968 12.7685C7.04117 17.814 10.5251 22.0058 14.846 25.5175C17.8365 27.9474 21.1234 29.8661 24.7696 31.1492C25.8111 31.5158 26.814 31.453 27.7487 30.869C28.5295 30.3812 29.2853 29.8517 30.0357 29.3184C30.7718 28.7958 30.8863 27.855 30.2601 27.2096C29.0472 25.9591 27.8131 24.7282 26.5631 23.5155C25.99 22.9595 25.1486 23.0299 24.5975 23.6139C24.4937 23.7238 24.3989 23.8435 24.2943 23.9525C23.3649 24.9213 22.2203 25.3985 20.9763 25.4387Z" fill="#FFDA2D"/>
<path d="M33.79 14.1451C33.7809 14.992 33.201 15.6093 32.3982 15.6903C31.6622 15.7646 30.9883 15.2624 30.8003 14.5246C30.5274 13.4528 30.3689 12.3279 29.9346 11.3243C28.1054 7.0984 24.8981 4.55027 20.3362 3.75418C19.4281 3.59587 18.9497 3.2141 18.7981 2.47784C18.6003 1.51738 19.4599 0.556149 20.4332 0.697038C25.1627 1.38406 28.8551 3.72236 31.4795 7.71422C32.681 9.54198 33.4117 11.5591 33.7445 13.7202C33.7695 13.8823 33.7794 14.0459 33.79 14.1451Z" fill="#FFDA2D"/>
<path d="M19.282 5.25808C24.4844 5.66484 28.6946 9.77789 29.2025 14.9506C29.3071 16.0156 28.8781 16.7133 28.0139 16.8852C27.0853 17.0693 26.2878 16.4285 26.1916 15.4354C25.9331 12.7684 24.6565 10.73 22.3702 9.33477C21.3992 8.74167 20.3357 8.39551 19.1971 8.30461C18.4739 8.24705 17.8955 7.97815 17.6385 7.25401C17.2572 6.18295 18.1017 5.16643 19.282 5.25808Z" fill="#FFDA2D"/>
<path d="M18.431 9.86572C22.1583 9.89981 25.0616 13.2137 24.531 16.8526C24.4059 17.7101 23.7032 18.2524 22.8375 18.16C22.0393 18.0752 21.4533 17.3313 21.5291 16.4974C21.7216 14.3674 20.2192 12.7888 18.0709 12.9547C16.8838 13.0463 16.1333 11.9988 16.3206 11.1564C16.4593 10.5323 16.83 10.1164 17.4561 9.97328C17.7722 9.90132 18.105 9.89905 18.431 9.86572Z" fill="#FFDA2D"/>
</svg>
