<svg width="26" height="26" viewBox="0 0 26 26" fill="none" xmlns="http://www.w3.org/2000/svg">
<path d="M19.8373 25.7315C19.1903 25.7575 18.421 25.4648 17.6567 25.1642C13.4893 23.5242 9.95866 20.9655 6.93336 17.6911C4.66099 15.2325 2.81918 12.4875 1.54108 9.38527C1.23005 8.63122 0.945653 7.85227 0.775126 7.05746C0.544547 5.98187 0.766062 4.93741 1.319 3.97899C1.67705 3.35855 2.04643 2.74433 2.42318 2.1352C3.56701 0.285744 6.0337 -0.0227824 7.59167 1.4972C8.58424 2.4658 9.56831 3.44459 10.5388 4.43527C11.9716 5.89865 11.8152 8.1523 10.2085 9.41414C9.61194 9.88288 9.53602 10.4626 9.99492 11.0592C11.5489 13.0831 13.3352 14.8759 15.3577 16.4321C16.0104 16.9342 16.6863 16.8714 17.2381 16.2578C18.6442 14.6942 20.7421 14.6364 22.2326 16.1219C23.0813 16.9676 23.9294 17.8151 24.7741 18.6648C26.3411 20.2409 26.11 22.6253 24.2716 23.8673C23.709 24.2477 23.151 24.6349 22.5828 25.0063C21.8593 25.4807 20.8894 25.7496 19.8373 25.7315ZM16.3157 19.0266C15.4892 19.0203 14.7895 18.8233 14.1799 18.3682C11.8979 16.6625 9.90654 14.6636 8.17577 12.4026C6.99795 10.8645 7.23419 8.89276 8.74571 7.67564C9.38023 7.16445 9.42781 6.52759 8.85958 5.95413C7.92253 5.0093 6.98038 4.07014 6.03484 3.13437C5.50059 2.60563 4.73974 2.69791 4.3494 3.33477C4.00438 3.89748 3.66615 4.46358 3.3302 5.03195C2.93249 5.70561 2.85318 6.42456 3.12455 7.15313C3.42651 7.96436 3.7347 8.77671 4.10635 9.55737C5.90113 13.3282 8.50493 16.461 11.7342 19.0854C13.9692 20.9015 16.4257 22.3354 19.1507 23.2944C19.9291 23.5684 20.6786 23.5214 21.3772 23.0849C21.9607 22.7204 22.5255 22.3247 23.0864 21.9261C23.6365 21.5355 23.7221 20.8324 23.2541 20.3501C22.3476 19.4155 21.4253 18.4956 20.4911 17.5892C20.0628 17.1737 19.434 17.2264 19.0221 17.6628C18.9445 17.7449 18.8737 17.8344 18.7955 17.9159C18.1009 18.6399 17.2454 18.9966 16.3157 19.0266Z" fill="#0D1220"/>
<path d="M25.8925 10.5863C25.8857 11.2192 25.4523 11.6806 24.8523 11.7411C24.3022 11.7966 23.7986 11.4213 23.6581 10.8699C23.4541 10.0689 23.3357 9.22821 23.0111 8.47813C21.644 5.31984 19.247 3.41547 15.8376 2.8205C15.1589 2.70219 14.8014 2.41687 14.6881 1.86662C14.5402 1.1488 15.1827 0.430417 15.9101 0.535712C19.4447 1.04917 22.2043 2.79672 24.1657 5.78008C25.0636 7.14609 25.6098 8.65362 25.8585 10.2687C25.8772 10.3899 25.8845 10.5121 25.8925 10.5863Z" fill="#0D1220"/>
<path d="M15.0502 3.94425C18.9383 4.24824 22.0848 7.32218 22.4644 11.1881C22.5426 11.984 22.2219 12.5054 21.5761 12.6339C20.8821 12.7715 20.2861 12.2926 20.2141 11.5504C20.0209 9.55715 19.0669 8.03377 17.3582 6.99101C16.6325 6.54775 15.8376 6.28904 14.9867 6.22111C14.4462 6.17809 14.014 5.97712 13.8219 5.43593C13.5369 4.63546 14.1681 3.87575 15.0502 3.94425Z" fill="#0D1220"/>
<path d="M14.4133 7.38818C17.199 7.41366 19.3688 9.89036 18.9722 12.6099C18.8787 13.2507 18.3536 13.6561 17.7066 13.587C17.11 13.5236 16.6721 12.9677 16.7287 12.3444C16.8726 10.7525 15.7498 9.57277 14.1442 9.69675C13.257 9.76525 12.6961 8.98233 12.8361 8.35282C12.9397 7.88635 13.2168 7.57556 13.6847 7.46857C13.921 7.41479 14.1697 7.41309 14.4133 7.38818Z" fill="#0D1220"/>
</svg>
