<svg width="20" height="20" viewBox="0 0 20 20" fill="none" xmlns="http://www.w3.org/2000/svg">
<g clip-path="url(#clip0_93_770)">
<path d="M0.936633 9.49073C0.921574 4.33243 5.16788 0.0183348 10.4423 0.0160531C15.6675 0.0137715 20.0462 4.34749 19.9339 9.71341C19.8285 14.7553 15.7255 18.9398 10.5715 19.0151C5.17199 19.0936 0.877765 14.6618 0.936633 9.49073ZM9.14996 11.0737C9.06417 10.9574 9.02538 10.8894 8.97245 10.8364C8.48826 10.3527 8.00864 9.864 7.51077 9.3949C7.36154 9.25435 7.17124 9.12384 6.9773 9.07182C6.55061 8.95728 6.14811 9.16491 5.94276 9.54822C5.74197 9.92287 5.80448 10.3482 6.1294 10.6781C6.90839 11.4689 7.68372 12.2643 8.48507 13.0323C8.64479 13.1851 8.90764 13.2664 9.13536 13.3038C9.50044 13.3636 9.76101 13.1286 10.0029 12.8862C11.1095 11.7774 12.2175 10.6703 13.3246 9.56237C13.8891 8.99744 14.4504 8.42977 15.0168 7.86712C15.2513 7.63394 15.3823 7.36243 15.3385 7.0284C15.2887 6.6501 15.0852 6.3754 14.7247 6.24717C14.3373 6.10936 13.9941 6.20519 13.702 6.49678C12.7866 7.40989 11.8671 8.31797 10.9544 9.23336C10.3648 9.82384 9.78474 10.4253 9.14996 11.0737Z" fill="black"/>
</g>
<defs>
<clipPath id="clip0_93_770">
<rect width="19" height="19" fill="white" transform="translate(0.936523 0.0160522)"/>
</clipPath>
</defs>
</svg>
