<svg width="44" height="32" viewBox="0 0 44 32" fill="none" xmlns="http://www.w3.org/2000/svg">
<path d="M21.5345 0.414472C27.1435 0.414472 32.7525 0.410255 38.3635 0.41658C41.2726 0.420797 43.046 2.19819 43.0502 5.14786C43.0628 12.3144 43.0628 19.4787 43.0502 26.6452C43.046 29.5696 41.237 31.4018 38.3594 31.406C27.1749 31.4145 15.9925 31.4145 4.80802 31.406C1.8676 31.4039 0.0690504 29.5759 0.0648678 26.5904C0.0565024 19.4598 0.0565024 12.3291 0.0648678 5.19846C0.0690504 2.18765 1.83205 0.418689 4.81011 0.414472C10.3856 0.410255 15.959 0.414472 21.5345 0.414472ZM21.5596 29.1205C27.0661 29.1205 32.5726 29.1226 38.0791 29.1205C40.0868 29.1184 40.7769 28.4184 40.7769 26.388C40.779 19.3965 40.779 12.405 40.7769 5.41141C40.7769 3.38312 40.0993 2.69999 38.0791 2.69999C27.0661 2.69788 16.0531 2.69788 5.04016 2.69999C3.02202 2.69999 2.34024 3.38733 2.34024 5.41141C2.33815 12.4029 2.33815 19.3944 2.34024 26.388C2.34024 28.41 3.04084 29.1184 5.04016 29.1205C10.5467 29.1205 16.0531 29.1184 21.5596 29.1205Z" fill="#FFDA2D"/>
<path d="M38.9447 5.60954C38.7879 5.81195 38.5453 6.22941 38.2107 6.54146C34.7788 9.73148 31.3532 12.9278 27.8732 16.0652C27.1329 16.7335 27.2249 17.0118 27.9589 17.579C31.303 20.1618 34.601 22.81 37.9137 25.4349C38.0496 25.5425 38.1898 25.65 38.3278 25.7575C38.928 26.2235 39.2124 26.816 38.721 27.4801C38.1877 28.1991 37.5289 28.0409 36.8994 27.5434C34.463 25.6121 32.0245 23.6807 29.5881 21.7515C28.3563 20.7754 27.1412 19.776 25.8739 18.8462C25.625 18.6627 25.098 18.6142 24.8261 18.7534C22.6448 19.8708 20.4698 19.9425 18.3388 18.7154C17.7511 18.376 17.4688 18.6269 17.0819 18.9347C15.8752 19.8919 14.6685 20.8491 13.4618 21.8043C12.2551 22.7594 11.0484 23.7166 9.83958 24.6717C9.23518 25.1503 8.63287 25.6268 8.02848 26.1054C7.62694 26.4238 7.21285 26.7295 6.80504 27.0416C6.49343 27.2798 6.26339 27.6635 5.86812 27.7732C5.66108 27.8301 5.44358 27.7964 5.23027 27.7732C5.08596 27.7563 4.94166 27.7437 4.80363 27.7015C4.6656 27.6593 4.53176 27.5834 4.44601 27.4653C4.34563 27.3262 4.32472 27.1428 4.32053 26.9699C4.31635 26.6768 4.354 26.3795 4.47529 26.1139C4.55476 25.9431 4.66979 25.7849 4.81618 25.6669C4.97721 25.5361 5.1738 25.4581 5.33902 25.3274C8.67888 22.6793 12.0083 20.0184 15.3733 17.404C15.9651 16.9444 15.9191 16.7145 15.4088 16.2465C12.0313 13.1534 8.67261 10.0372 5.30765 6.93151C5.12779 6.76495 4.95839 6.58784 4.77226 6.42971C4.1595 5.90682 3.87926 5.27852 4.46693 4.61437C5.05668 3.946 5.69873 4.17793 6.28848 4.724C8.41537 6.69748 10.5506 8.66463 12.6817 10.6339C14.6078 12.4134 16.5319 14.195 18.4622 15.9703C20.4113 17.7645 22.6908 17.7793 24.6295 15.9935C28.5905 12.3459 32.5431 8.68993 36.502 5.03816C36.7593 4.80202 37.004 4.53425 37.303 4.36979C38.058 3.95443 38.9259 4.48364 38.9447 5.60954Z" fill="#FFDA2D"/>
</svg>
