<svg width="36" height="26" viewBox="0 0 36 26" fill="none" xmlns="http://www.w3.org/2000/svg">
<g clip-path="url(#clip0_16_249)">
<path d="M18.3032 0.631394C22.8686 0.631394 27.4341 0.627994 32.0012 0.633095C34.369 0.636495 35.8125 2.06988 35.8159 4.44864C35.8262 10.2281 35.8262 16.0058 35.8159 21.7852C35.8125 24.1436 34.3401 25.6212 31.9978 25.6246C22.8941 25.6314 13.7922 25.6314 4.68857 25.6246C2.2952 25.6229 0.831265 24.1487 0.827861 21.741C0.821052 15.9905 0.821052 10.24 0.827861 4.48945C0.831265 2.06137 2.26626 0.634795 4.69027 0.631394C9.22847 0.627994 13.765 0.631394 18.3032 0.631394ZM18.3236 23.7814C22.8056 23.7814 27.2877 23.7831 31.7697 23.7814C33.4039 23.7797 33.9656 23.2152 33.9656 21.5778C33.9673 15.9395 33.9673 10.3012 33.9656 4.66118C33.9656 3.02546 33.4141 2.47456 31.7697 2.47456C22.8056 2.47286 13.8416 2.47286 4.87752 2.47456C3.23484 2.47456 2.67991 3.02886 2.67991 4.66118C2.67821 10.2995 2.67821 15.9378 2.67991 21.5778C2.67991 23.2084 3.25016 23.7797 4.87752 23.7814C9.35955 23.7814 13.8416 23.7797 18.3236 23.7814Z" fill="#0D1220"/>
<path d="M32.4744 4.82072C32.3468 4.98395 32.1493 5.32061 31.8769 5.57226C29.0835 8.14487 26.2952 10.7226 23.4627 13.2527C22.8601 13.7917 22.935 14.0161 23.5325 14.4735C26.2544 16.5564 28.9388 18.692 31.6352 20.8089C31.7459 20.8957 31.8599 20.9824 31.9723 21.0691C32.4608 21.4449 32.6923 21.9227 32.2923 22.4583C31.8582 23.0381 31.322 22.9106 30.8096 22.5093C28.8265 20.9518 26.8417 19.3943 24.8585 17.8385C23.8559 17.0512 22.8669 16.2453 21.8354 15.4954C21.6328 15.3475 21.2038 15.3084 20.9825 15.4206C19.2071 16.3218 17.4367 16.3796 15.7021 15.39C15.2238 15.1162 14.994 15.3186 14.6791 15.5668C13.6969 16.3388 12.7147 17.1107 11.7325 17.881C10.7503 18.6512 9.76809 19.4232 8.78418 20.1934C8.29223 20.5794 7.80198 20.9637 7.31003 21.3497C6.9832 21.6064 6.64615 21.853 6.31422 22.1046C6.06058 22.2967 5.87333 22.6062 5.55161 22.6946C5.38308 22.7405 5.20605 22.7133 5.03242 22.6946C4.91496 22.681 4.79751 22.6708 4.68516 22.6368C4.57281 22.6028 4.46387 22.5416 4.39408 22.4464C4.31237 22.3341 4.29535 22.1862 4.29194 22.0468C4.28854 21.8104 4.31918 21.5707 4.41791 21.3565C4.48259 21.2187 4.57622 21.0912 4.69537 20.996C4.82645 20.8906 4.98646 20.8277 5.12094 20.7222C7.83943 18.5866 10.5494 16.4408 13.2883 14.3324C13.7701 13.9617 13.7326 13.7764 13.3173 13.3989C10.5681 10.9045 7.83433 8.39142 5.0954 5.88682C4.94901 5.7525 4.81113 5.60967 4.65963 5.48215C4.16087 5.06046 3.93277 4.55376 4.4111 4.01816C4.89113 3.47915 5.41373 3.66619 5.89376 4.10658C7.62495 5.69809 9.36295 7.2845 11.0975 8.87261C12.6653 10.3077 14.2314 11.7445 15.8026 13.1762C17.3891 14.6231 19.2445 14.635 20.8225 13.1949C24.0466 10.2533 27.2638 7.3049 30.4862 4.35993C30.6956 4.16949 30.8947 3.95355 31.1382 3.82092C31.7527 3.48595 32.4591 3.91274 32.4744 4.82072Z" fill="#0D1220"/>
</g>
<defs>
<clipPath id="clip0_16_249">
<rect width="35" height="25" fill="white" transform="translate(0.822754 0.629395)"/>
</clipPath>
</defs>
</svg>
