<svg width="42" height="40" viewBox="0 0 42 40" fill="none" xmlns="http://www.w3.org/2000/svg">
<mask id="mask0_405_232" style="mask-type:luminance" maskUnits="userSpaceOnUse" x="0" y="0" width="42" height="40">
<path d="M41.2141 0.703857H0.147095V39.526H41.2141V0.703857Z" fill="white"/>
</mask>
<g mask="url(#mask0_405_232)">
<path d="M36.6512 6.10015H20.6807V16.8798H41.2142V10.4094C41.2142 9.27062 40.7351 8.17066 39.8795 7.3554C39.0239 6.55307 37.8604 6.10015 36.6512 6.10015Z" fill="#EDECEC"/>
<path d="M12.6954 6.10016H4.7101C3.5009 6.10016 2.33734 6.55308 1.48177 7.36835C0.62621 8.17067 0.147095 9.27063 0.147095 10.4094V16.8798H12.6954V6.10016Z" fill="#EEEEEE"/>
<path d="M36.6511 34.1297H20.6806V23.3501H41.2141V29.8205C41.2141 30.9592 40.735 32.0592 39.8795 32.8745C39.0239 33.6768 37.8603 34.1297 36.6511 34.1297ZM12.6954 34.1297H4.7101C3.5009 34.1297 2.33734 33.6768 1.48177 32.8615C0.62621 32.0592 0.147095 30.9592 0.147095 29.8205V23.3501H12.6954V34.1297Z" fill="#EDECEC"/>
<path d="M20.6806 6.10016H12.6954V16.8798H0.147095V23.3501H12.6954V34.1298H20.6806V23.3501H41.2141V16.8798H20.6806V6.10016Z" fill="#003580"/>
</g>
</svg>
