<svg width="34" height="34" viewBox="0 0 34 34" fill="none" xmlns="http://www.w3.org/2000/svg">
<path d="M0.631247 9.43343C0.641981 9.32609 0.654861 9.2209 0.665595 9.11356C0.779375 7.97147 1.20658 6.96249 1.95796 6.09304C2.67498 5.26224 3.56804 4.70407 4.62426 4.41211C5.07079 4.2876 5.52805 4.22534 5.99176 4.22534C8.40259 4.22534 10.8134 4.22534 13.2243 4.22534C14.1002 4.22534 14.8172 4.80068 15.0082 5.6551C15.1821 6.43653 14.7549 7.29524 14.0315 7.63443C13.7502 7.76538 13.454 7.81691 13.1491 7.81691C10.7855 7.81691 8.42192 7.81691 6.05831 7.81691C5.49371 7.81691 5.02571 8.03158 4.65861 8.45879C4.38167 8.78296 4.23355 9.16079 4.23355 9.59015C4.23355 15.6226 4.23355 21.6529 4.23355 27.6854C4.23355 28.5634 4.89905 29.3169 5.77923 29.4393C5.8973 29.4565 6.01537 29.465 6.13345 29.465C12.0779 29.4672 18.0223 29.465 23.9668 29.4672C24.3918 29.4672 24.789 29.3727 25.1325 29.113C25.5962 28.763 25.843 28.295 25.8731 27.7133C25.8774 27.636 25.8774 27.5609 25.8774 27.4836C25.8774 25.1436 25.8774 22.8036 25.8774 20.4636C25.8774 20.06 25.9869 19.6908 26.2338 19.3709C26.6374 18.8471 27.174 18.6023 27.831 18.6581C28.6317 18.7268 29.2564 19.2936 29.426 20.075C29.4561 20.2124 29.4647 20.3584 29.4647 20.5001C29.4668 22.8637 29.4647 25.2273 29.4668 27.5909C29.469 28.7266 29.1598 29.7699 28.5158 30.7059C27.9125 31.5818 27.1182 32.2301 26.1329 32.6401C25.5446 32.8849 24.9328 33.0201 24.2952 33.0459C24.2759 33.0459 24.2566 33.0566 24.2372 33.063C18.1211 33.063 12.0049 33.063 5.88871 33.063C5.85222 33.0566 5.81572 33.048 5.77923 33.0459C5.66545 33.0373 5.55167 33.033 5.44004 33.0201C4.66934 32.9321 3.94802 32.6917 3.28037 32.2966C2.5934 31.8888 2.02451 31.3542 1.57583 30.6951C1.04772 29.918 0.738586 29.0614 0.659155 28.1233C0.648421 28.0117 0.637687 27.8979 0.626953 27.7863C0.631247 21.6658 0.631247 15.5496 0.631247 9.43343Z" fill="#FFDA2D"/>
<path d="M33.0815 13.2848C33.0579 13.4136 33.0429 13.5445 33.0107 13.6712C32.8218 14.4183 32.1906 14.9507 31.4199 15.0172C30.3852 15.1052 29.4857 14.2787 29.4835 13.2375C29.4835 11.1229 29.4835 9.00622 29.4835 6.89164C29.4835 6.853 29.4792 6.8165 29.4749 6.75854C29.4363 6.79289 29.4148 6.81435 29.3912 6.83582C28.1568 8.07022 26.9224 9.30462 25.688 10.539C24.3377 11.8893 22.9874 13.2397 21.637 14.59C20.4069 15.8244 19.1704 17.0609 17.9339 18.2975C16.8089 19.4245 15.6819 20.5495 14.557 21.6765C14.1448 22.0887 13.6467 22.2733 13.0628 22.2239C12.2814 22.1574 11.5944 21.5048 11.4828 20.7319C11.3948 20.1094 11.5729 19.5791 12.0152 19.1369C13.4063 17.7436 14.8017 16.3504 16.195 14.9571C17.5925 13.5595 18.9879 12.1641 20.3855 10.7666C21.8367 9.31535 23.2879 7.86413 24.7391 6.41505C25.4433 5.71091 26.1474 5.00676 26.8516 4.30262C26.873 4.28115 26.8945 4.25754 26.9289 4.22104C26.8773 4.2189 26.8451 4.21675 26.8129 4.21675C24.7284 4.21675 22.646 4.21675 20.5615 4.21675C20.1944 4.21675 19.8402 4.14805 19.5268 3.94626C18.9171 3.55125 18.6208 2.98664 18.6788 2.26318C18.7432 1.44955 19.325 0.816249 20.1214 0.65524C20.2051 0.638066 20.291 0.627332 20.3747 0.612305C20.379 0.612305 20.3855 0.612305 20.3898 0.612305C20.4349 0.616598 20.4778 0.623039 20.5229 0.623039C24.0908 0.623039 27.6566 0.623039 31.2246 0.625185C31.3383 0.625185 31.4521 0.633772 31.5638 0.650947C32.2443 0.747552 32.839 1.2821 33.0043 1.9476C33.0407 2.09788 33.0579 2.25245 33.0837 2.40487C33.0815 6.02649 33.0815 9.65669 33.0815 13.2848Z" fill="#FFDA2D"/>
</svg>
