<svg width="20" height="29" viewBox="0 0 20 29" fill="none" xmlns="http://www.w3.org/2000/svg">
<path d="M19.7526 10.0378C19.7956 12.6527 19.1259 14.6974 17.8638 16.5875C16.3249 18.8921 14.8378 21.2316 13.3513 23.5711C12.411 25.0515 11.5163 26.5615 10.594 28.054C10.2085 28.6773 9.56837 28.6699 9.17542 28.0446C7.11265 24.7607 5.05256 21.4748 2.98979 18.1908C2.36041 17.1887 1.65178 16.2281 1.10502 15.183C0.0625466 13.1901 -0.241059 11.0447 0.188825 8.83548C0.922987 5.05854 3.07778 2.37714 6.70292 1.08748C10.1742 -0.147762 13.4058 0.531321 16.2376 2.90039C17.9202 4.30826 18.9768 6.12788 19.4819 8.25446C19.6471 8.94631 19.6982 9.66569 19.7526 10.0378ZM9.89817 14.79C12.1282 14.7867 13.97 12.9019 13.9727 10.6208C13.9747 8.31626 12.1369 6.45432 9.86458 6.45835C7.62918 6.46238 5.77262 8.34245 5.80956 10.6376C5.85121 13.2136 7.90995 14.8256 9.89817 14.79Z" fill="#0D1220"/>
</svg>
