<svg width="32" height="46" viewBox="0 0 32 46" fill="none" xmlns="http://www.w3.org/2000/svg">
<path d="M21.14 37.4082L21.14 37.4083C20.199 38.8897 19.2832 40.3951 18.3703 41.8958C17.8248 42.7923 17.2804 43.6872 16.7323 44.5743C16.4883 44.9687 16.2221 45.0791 16.0332 45.0776C15.8409 45.076 15.5672 44.9574 15.3151 44.5561C13.6676 41.9334 12.0213 39.31 10.3749 36.6864L10.371 36.6803C8.72592 34.0587 7.08074 31.4371 5.43447 28.8163C5.08928 28.2666 4.73724 27.7359 4.3893 27.2114C3.69544 26.1654 3.01791 25.1439 2.44349 24.0459C0.831611 20.9645 0.362456 17.6531 1.02776 14.234L1.02778 14.2339C2.16928 8.36141 5.49792 4.22983 11.1098 2.23339L11.1098 2.23338C16.4769 0.323544 21.4547 1.36334 25.8515 5.04161C28.4494 7.21535 30.084 10.0245 30.8682 13.326L30.8683 13.3266C31.0536 14.1022 31.1426 14.8775 31.2133 15.4931C31.2392 15.7191 31.2627 15.9237 31.2876 16.0988C31.3487 20.1567 30.3099 23.3145 28.3541 26.2435C25.8924 29.9302 23.5139 33.672 21.14 37.4082ZM23.0545 16.9909V16.9908C23.0579 13.0396 19.9046 9.8345 15.9916 9.84144C12.1387 9.84838 8.95183 13.0834 9.01528 17.0252L9.01528 17.0253C9.08647 21.4287 12.6143 24.2093 16.0509 24.15C19.8974 24.1419 23.0499 20.8981 23.0545 16.9909Z" fill="#FFDA2D" stroke="#FFDA2D"/>
</svg>
