<svg width="62" height="87" viewBox="0 0 62 87" fill="none" xmlns="http://www.w3.org/2000/svg">
<path d="M58.3312 5.52597L59.8698 1.76755L57.9786 0.901966L54.1644 0.741911L51.9845 0.0126953L50.3498 1.43898L46.88 2.45684L43.979 7.74576L40.9661 7.65744L40.3248 8.33049L40.5736 10.5181L39.3554 11.6483L38.3616 10.4542L34.7236 13.86L34.5172 14.3984L32.9207 13.7318L31.6866 15.0058L32.2233 16.384L33.9284 15.9353L32.8723 18.6921L31.5262 20.2307L30.0116 24.045L27.7116 25.0226L28.4571 26.5213L25.5081 30.7284L22.2785 39.0063L23.0798 40.3767L21.998 43.0289L21.926 42.9569L19.8067 43.8072L14.7939 50.7302L16.5971 52.2127L18.4961 52.8218L15.9237 52.9256L15.2107 51.5555L12.6225 52.8458L12.8147 54.224L12.7585 54.2721L8.84813 55.9548L0.978699 62.7824L1.55564 64.5454L1.12285 72.7911L2.11296 74.0752L0.425781 76.9742L2.4131 79.6109L0.978699 81.5901L1.60369 83.1128L3.77543 84.8277L4.43257 86.1498L7.60593 86.6387L9.78545 85.8533L15.1708 80.5884L16.7497 79.9154L17.1744 78.529L16.6695 76.3492L18.176 75.4278L17.9516 77.6875L18.3922 79.6907L20.1552 80.0836L21.5656 79.13L21.1091 77.1907L21.7341 75.6362L23.6652 73.6326L23.8574 71.1323L22.7438 68.2395L24.026 67.8307L24.5549 65.7395L22.351 63.5756L22.1107 51.8198L23.473 49.5361L24.9636 48.6387L26.9269 49.0633L27.2633 46.3306L25.9412 45.4971L27.6081 42.0835L28.1529 37.4598L27.7763 35.7046L30.0922 34.6069L29.8516 33.2605L31.9993 29.5424L31.0938 27.2904L33.5139 22.7388L35.445 22.1859L35.2048 19.8061L39.3557 20.4388L39.9567 19.5333L39.7482 16.809L41.5112 14.0843L43.1541 15.2301L45.0054 17.0652L46.4956 17.4499L47.8742 15.8795L50.7751 16.3762L51.5923 14.573L51.1595 9.39639L51.7926 7.78569L53.0829 7.5451L54.4452 6.04674L55.9839 7.36102L57.7387 7.67335L59.9663 9.0597L60.9039 7.56134L61.0403 5.71817L58.3312 5.52597ZM31.3019 19.9661L31.0132 18.2915L29.7551 17.7223L28.9058 20.0544L30.196 21.2483L31.3019 19.9661Z" fill="#0D1220"/>
</svg>
