<svg width="91" height="76" viewBox="0 0 91 76" fill="none" xmlns="http://www.w3.org/2000/svg">
<path d="M0.625488 35.8832C1.30942 34.6841 2.3028 34.4837 3.60737 34.7597C8.04327 35.6986 12.4844 36.6234 16.9467 37.4199C19.5383 37.8823 21.525 38.9706 22.4059 41.5147C25.1627 41.0558 27.8598 40.6074 30.6447 40.145C30.6447 38.4871 30.6447 36.7922 30.6447 35.0991C30.643 29.6206 30.6131 24.1421 30.6641 18.6653C30.6729 17.795 30.8874 16.8509 31.2724 16.0737C33.5633 11.4638 35.9474 6.89954 38.2664 2.30189C38.7921 1.26105 39.5323 0.825018 40.7033 0.828534C53.9723 0.849632 67.2431 0.849632 80.5139 0.825018C81.7147 0.82326 82.4777 1.24347 83.0228 2.32475C85.4034 7.05426 87.8455 11.7539 90.2278 16.4816C90.4933 17.0073 90.6304 17.6544 90.6322 18.2469C90.6551 31.6653 90.6427 45.082 90.6621 58.5005C90.6638 59.5976 90.2753 60.3518 89.2837 60.816C80.4136 64.9741 71.7739 69.6403 62.5558 73.0196C59.711 74.0622 56.7731 74.9149 53.8141 75.5672C49.932 76.4234 46.2029 75.2542 42.5318 74.1307C34.8503 71.7818 27.5046 68.5801 20.231 65.2062C19.9708 65.0866 19.7071 64.9759 19.4363 64.8581C19.1392 65.3205 18.9036 65.7583 18.6029 66.1468C17.4056 67.6958 15.7933 68.3762 13.8593 68.3727C10.3148 68.3674 6.77034 68.3516 3.22584 68.3832C2.07247 68.3938 1.1758 68.058 0.625488 67.0031C0.625488 56.6298 0.625488 46.2565 0.625488 35.8832ZM86.8416 53.0677C86.8416 41.9032 86.8416 30.788 86.8416 19.6376C81.8466 19.6376 76.9148 19.6376 71.9234 19.6376C71.9058 19.9769 71.8812 20.2617 71.8812 20.5483C71.8794 23.1838 71.8847 25.8194 71.8847 28.4566C71.8864 30.1445 71.2342 30.8355 69.5797 30.8372C63.6054 30.846 57.6293 30.846 51.655 30.8372C50.0832 30.8355 49.3729 30.097 49.3676 28.5041C49.3606 25.9266 49.3694 23.3491 49.3711 20.7716C49.3711 20.4024 49.3711 20.0349 49.3711 19.6411C44.3128 19.6411 39.3794 19.6411 34.4477 19.6411C34.4477 26.5965 34.4477 33.4938 34.4477 40.0888C36.8617 41.0171 39.1649 41.7802 41.3591 42.7788C44.3216 44.1291 47.2982 45.3739 50.4981 46.0648C52.6378 46.5272 54.7899 47.016 56.8557 47.7281C60.2912 48.9113 63.5755 50.3812 64.3368 54.5621C64.6005 54.5041 64.7992 54.4637 64.9961 54.4145C67.8338 53.7147 70.6645 52.9851 73.5092 52.3187C76.6933 51.5715 79.909 51.1038 83.1546 51.8897C84.3906 52.1851 85.5827 52.658 86.8416 53.0677ZM86.5005 57.9484C86.5374 57.8447 86.5743 57.7409 86.6112 57.6355C85.9273 57.1678 85.2908 56.5999 84.5524 56.25C82.6008 55.327 80.491 55.0544 78.3777 55.3252C76.1483 55.61 73.9136 55.9951 71.7423 56.5665C68.1169 57.5212 64.4335 58.2244 60.998 59.9211C58.0443 61.3786 54.7494 60.9619 51.5689 60.591C46.2908 59.9738 41.1868 58.5497 36.0845 57.1309C35.8067 57.0535 35.5307 56.9304 35.2828 56.781C34.5409 56.3326 34.2209 55.4395 34.4934 54.6536C34.78 53.8272 35.5219 53.3103 36.3887 53.4035C36.8792 53.4562 37.3645 53.5864 37.8427 53.72C43.1999 55.2197 48.5712 56.6491 54.1499 57.0605C55.8817 57.1889 57.6047 57.1942 59.2785 56.6333C60.6727 56.1656 61.0384 55.1951 60.1945 53.9855C59.8376 53.4756 59.3383 52.9622 58.7862 52.7108C57.1423 51.9653 55.4896 51.1267 53.749 50.7275C48.3426 49.4845 43.0434 48.0147 38.1065 45.3932C36.3993 44.486 34.511 43.9708 32.5383 43.9796C29.2962 43.9937 26.1262 44.5264 23.0212 45.4249C22.7259 45.511 22.3619 45.9259 22.3162 46.2301C21.6147 50.9192 20.973 55.6171 20.2767 60.3079C20.1888 60.8951 20.3506 61.1272 20.8569 61.3523C23.7456 62.6305 26.6027 63.9807 29.5037 65.229C34.9329 67.5674 40.4255 69.7423 46.1519 71.2596C48.478 71.875 50.8375 72.4218 53.2585 71.8996C54.9428 71.5357 56.6254 71.1225 58.2588 70.581C64.6603 68.4606 70.7471 65.5912 76.8041 62.6603C80.0356 61.0903 83.2672 59.5185 86.5005 57.9484ZM4.42492 38.7789C4.42492 47.4362 4.42492 55.9722 4.42492 64.5416C7.82174 64.5416 11.157 64.5627 14.4923 64.5258C15.2589 64.517 15.7881 64.0071 16.0026 63.2599C16.1309 62.8115 16.1942 62.3439 16.261 61.8815C17.1173 55.9124 17.9629 49.9434 18.8262 43.9744C19.0495 42.4342 18.5431 41.6166 17.0346 41.3054C14.1688 40.7147 11.2977 40.1486 8.42831 39.5754C7.1167 39.3134 5.8051 39.0532 4.42492 38.7789ZM49.8036 15.7995C50.7408 12.0493 51.6621 8.36763 52.5869 4.67368C52.4374 4.63676 52.3548 4.59984 52.2721 4.59984C48.7892 4.59456 45.3062 4.5805 41.8233 4.61215C41.5683 4.6139 41.2061 4.8917 41.0778 5.13784C39.8523 7.46568 38.6656 9.81285 37.4682 12.1548C36.8617 13.3415 36.2551 14.5301 35.6046 15.7995C40.4026 15.7995 45.0724 15.7995 49.8036 15.7995ZM85.5968 15.8135C85.5475 15.6201 85.5423 15.5305 85.5036 15.4549C83.7348 11.993 81.9784 8.52586 80.1693 5.08685C80.0321 4.82489 79.5381 4.61215 79.2093 4.60863C75.932 4.57522 72.6548 4.59105 69.3775 4.59632C69.1613 4.59632 68.9468 4.62973 68.6848 4.65083C69.6307 8.42389 70.559 12.1231 71.4838 15.8135C76.2327 15.8135 80.8831 15.8135 85.5968 15.8135ZM64.7957 4.58753C62.1268 4.58753 59.5247 4.57522 56.9225 4.61215C56.7256 4.61566 56.4179 4.9462 56.3564 5.17652C55.8606 7.01031 55.4105 8.85464 54.9516 10.6972C54.5314 12.3833 54.1165 14.0729 53.691 15.7907C58.3783 15.7907 62.9584 15.7907 67.593 15.7907C66.6523 12.0299 65.7275 8.32367 64.7957 4.58753ZM53.2022 19.6306C53.2022 22.1237 53.2022 24.5658 53.2022 27.0202C58.2043 27.0202 63.1588 27.0202 68.0958 27.0202C68.0958 24.5253 68.0958 22.1026 68.0958 19.6306C63.1184 19.6306 58.1867 19.6306 53.2022 19.6306Z" fill="white"/>
</svg>
