<svg width="77" height="76" viewBox="0 0 77 76" fill="none" xmlns="http://www.w3.org/2000/svg">
<path d="M37.7964 0.296291C45.7786 0.296291 53.759 0.2821 61.7412 0.299838C67.9939 0.314029 73.7765 4.51265 75.4705 10.2988C75.7809 11.3631 75.9264 12.5001 75.9689 13.6123C76.047 15.5901 76.0026 17.5733 75.9831 19.5528C75.9689 20.995 75.0661 21.951 73.796 21.9191C72.5561 21.889 71.6976 20.94 71.6852 19.5546C71.671 17.811 71.6178 16.0637 71.6869 14.3219C71.8909 9.09797 67.4848 5.12994 62.9225 4.76808C59.8662 4.52507 56.7798 4.61021 53.7075 4.60666C40.6115 4.59602 27.5171 4.59957 14.4211 4.61376C9.56967 4.62085 5.93512 7.30464 4.90985 11.6469C4.72183 12.4434 4.65974 13.2859 4.65797 14.1072C4.64023 23.0047 4.63491 31.9039 4.64733 40.8014C4.65442 45.8692 8.48409 49.8283 13.5341 49.9844C15.425 50.043 17.3177 50.0039 19.2104 50.0128C19.5048 50.0146 19.8046 50.0146 20.0937 50.0643C21.1598 50.247 21.9048 51.0966 21.942 52.1396C21.9775 53.1702 21.2733 54.2451 20.2037 54.2735C16.1488 54.3764 12.0087 54.9564 8.15948 53.1152C3.24956 50.7667 0.509012 46.8093 0.384845 41.3655C0.225202 34.3039 0.335178 27.237 0.329857 20.1719C0.328083 17.9546 0.29438 15.7374 0.338726 13.5201C0.469988 7.07049 4.81406 1.85015 11.1253 0.580101C12.1594 0.372565 13.2379 0.30516 14.2951 0.301612C22.1283 0.278552 29.9632 0.289195 37.7964 0.289195C37.7964 0.292743 37.7964 0.294517 37.7964 0.296291Z" fill="white"/>
<path d="M43.9942 57.3333C40.9042 55.4726 37.9224 53.6775 34.9406 51.8806C34.3836 51.5453 33.8284 51.2101 33.2768 50.866C31.9588 50.0447 31.5863 48.8722 32.2728 47.737C32.9451 46.6248 34.2346 46.3942 35.5206 47.1693C39.4408 49.5303 43.3715 51.8735 47.2651 54.277C47.9693 54.7116 48.4518 54.6956 49.1435 54.2664C52.4056 52.246 55.7031 50.2788 59.0024 48.3188C59.4618 48.0456 59.6499 47.7795 59.6162 47.2154C59.3607 42.7312 62.6937 38.9548 67.0023 38.7951C71.5823 38.6266 75.3056 42.0288 75.3286 46.5928C75.3446 49.8921 73.7836 52.4039 70.7752 53.8087C67.7296 55.2313 64.8525 54.7364 62.268 52.5883C62.0197 52.3826 61.7962 52.1484 61.4946 51.8646C58.5004 53.6704 55.5062 55.4779 52.4074 57.3475C55.3519 59.1249 58.2024 60.8437 61.0937 62.5891C62.4294 60.9466 64.056 59.8521 66.1314 59.4849C70.5872 58.6974 74.8089 61.9133 75.2949 66.4809C75.7703 70.9633 72.2741 75.0041 67.7934 75.1531C63.3199 75.3003 59.6711 71.8857 59.5825 67.4316C59.5718 66.9332 59.453 66.637 59.0148 66.3762C55.6162 64.3523 52.2229 62.3159 48.8526 60.2459C48.3329 59.9266 47.9817 59.9993 47.5081 60.2867C43.5738 62.6814 39.6323 65.0654 35.6714 67.4157C35.1605 67.719 34.5308 67.9478 33.9455 67.9744C33.0266 68.017 32.2834 67.3181 32.0262 66.4152C31.7797 65.5478 32.0865 64.6201 32.8812 64.0791C33.6368 63.5647 34.4351 63.1124 35.2191 62.6406C37.9259 61.0122 40.6345 59.3856 43.3414 57.759C43.5205 57.6544 43.6873 57.5355 43.9942 57.3333ZM70.9952 67.2205C70.9845 65.28 69.342 63.6587 67.4263 63.6942C65.4662 63.7315 63.8875 65.3243 63.884 67.272C63.8786 69.2321 65.5602 70.8835 67.5203 70.8445C69.4733 70.8054 71.0058 69.2072 70.9952 67.2205ZM70.9987 46.6762C70.9916 44.67 69.3775 43.0807 67.3766 43.1091C65.4786 43.1339 63.8999 44.7303 63.8875 46.6354C63.8751 48.6026 65.4431 50.2221 67.3801 50.2434C69.381 50.2646 71.0058 48.6629 70.9987 46.6762Z" fill="white"/>
<path d="M28.4131 27.292C28.4131 24.4858 28.3918 21.6796 28.4273 18.8734C28.4361 18.1763 28.5284 17.4473 28.7501 16.791C29.6388 14.1639 32.5443 13.1245 34.7722 14.7546C38.8467 17.7346 42.8644 20.7962 46.8324 23.9164C48.9095 25.5501 48.8403 28.8742 46.6958 30.6054C42.836 33.7203 38.9052 36.7482 34.9691 39.769C33.7097 40.7357 32.2498 40.9432 30.7953 40.216C29.1865 39.4107 28.4627 37.9845 28.4361 36.2409C28.3918 33.2573 28.4237 30.2737 28.4237 27.2902C28.4202 27.292 28.4166 27.292 28.4131 27.292ZM32.8175 35.9748C36.6258 33.0036 40.3101 30.1318 44.1007 27.1749C40.303 24.3048 36.6241 21.5235 32.8175 18.6446C32.8175 24.4929 32.8175 30.1407 32.8175 35.9748Z" fill="white"/>
</svg>
