<svg width="77" height="83" viewBox="0 0 77 83" fill="none" xmlns="http://www.w3.org/2000/svg">
<path d="M2.09286 40.3495C1.84849 40.3578 1.60486 40.3179 1.37591 40.232C1.14695 40.1462 0.937162 40.0161 0.758514 39.8491C0.577396 39.6765 0.432263 39.4697 0.331493 39.2406C0.230723 39.0116 0.176312 38.7649 0.171399 38.5147C0.163394 38.2688 0.204041 38.0238 0.291005 37.7936C0.37797 37.5635 0.509539 37.3528 0.678158 37.1736C0.846776 36.9945 1.04912 36.8504 1.27358 36.7497C1.49804 36.6489 1.74019 36.5935 1.98612 36.5866L7.75719 36.3865C8.25118 36.3743 8.73024 36.5564 9.09154 36.8935C9.36006 37.1474 9.54755 37.475 9.63047 37.8351C9.71338 38.1952 9.68801 38.5718 9.55755 38.9176C9.42709 39.2633 9.19736 39.5628 8.89722 39.7784C8.59708 39.994 8.23991 40.1161 7.87061 40.1293L2.09286 40.3228V40.3495ZM45.5994 27.3396C46.0854 27.3318 46.5689 27.4109 47.0271 27.5731C47.9656 27.9018 48.7978 28.4781 49.4356 29.241C50.1348 30.0514 50.5741 31.0533 50.6966 32.1165C50.7524 32.6512 50.7254 33.1913 50.6166 33.7178C51.0974 34.143 51.5093 34.6405 51.8375 35.1922C52.3018 35.9837 52.5331 36.8903 52.5047 37.8075C52.4707 38.7745 52.1374 39.707 51.5506 40.4762C51.1066 41.0645 50.565 41.5722 49.9494 41.9774C50.0228 43.2796 49.6639 44.5696 48.9286 45.6469C48.2525 46.7109 47.1827 47.4641 45.953 47.7418C45.6247 48.8782 44.8773 49.8478 43.8619 50.4546C42.8464 51.0614 41.6385 51.2602 40.4821 51.0109C39.9653 50.8649 39.4852 50.611 39.0735 50.2661C38.6618 49.9211 38.3279 49.4928 38.0937 49.0094C37.8153 49.5309 37.4272 49.9858 36.9561 50.3428C36.4851 50.6999 35.9422 50.9506 35.3649 51.0777C34.763 51.1907 34.1437 51.1724 33.5495 51.0238C32.9553 50.8753 32.4002 50.6001 31.9223 50.217C31.122 49.6069 30.5698 48.7276 30.3678 47.7418C29.9564 47.7246 29.5497 47.6482 29.1602 47.5149C28.2448 47.1902 27.4304 46.6312 26.7984 45.8937C26.1176 45.116 25.6731 44.16 25.5174 43.1383C25.4347 42.5544 25.455 41.9605 25.5774 41.3836C25.1443 40.9942 24.7691 40.5449 24.4633 40.0492C23.9645 39.2486 23.701 38.3238 23.7027 37.3805C23.7212 36.3698 24.06 35.3911 24.6701 34.5851C25.0933 34.02 25.6047 33.5267 26.1846 33.124C26.1846 32.9438 26.1846 32.757 26.1846 32.5769C26.2303 31.29 26.6994 30.0541 27.5189 29.0609C28.2257 28.1579 29.2439 27.5513 30.3744 27.3596C30.4101 27.187 30.4592 27.0174 30.5212 26.8525C30.8855 25.9124 31.5615 25.1258 32.436 24.6241C33.3153 24.097 34.3587 23.914 35.3649 24.1104C35.9109 24.228 36.4262 24.4585 36.8778 24.7871C37.3293 25.1157 37.7071 25.5352 37.9869 26.0185C38.2693 25.536 38.6487 25.1173 39.1012 24.7889C39.5537 24.4605 40.0693 24.2294 40.6156 24.1104C41.5234 23.9361 42.4634 24.0724 43.2843 24.4974C44.0947 24.905 44.7641 25.5464 45.2058 26.3388C45.3733 26.65 45.499 26.982 45.5794 27.3262L45.5994 27.3396ZM39.041 27.9333V46.2873C39.1258 46.4017 39.1829 46.5342 39.2078 46.6743C39.468 48.2755 40.1619 49.0494 40.9492 49.2629C41.3319 49.3456 41.7282 49.343 42.1098 49.2554C42.4915 49.1678 42.8492 48.9972 43.1575 48.7559C43.4766 48.5529 43.744 48.2784 43.9385 47.9542C44.1331 47.6299 44.2494 47.2648 44.2784 46.8878C44.2784 46.0738 43.6913 45.1465 42.09 44.3325C41.9773 44.2853 41.8755 44.2152 41.791 44.1268C41.7066 44.0383 41.6414 43.9333 41.5994 43.8185C41.5575 43.7036 41.5397 43.5813 41.5473 43.4593C41.5548 43.3372 41.5875 43.2181 41.6433 43.1092C41.6991 43.0004 41.7768 42.9043 41.8715 42.827C41.9662 42.7496 42.0758 42.6926 42.1936 42.6596C42.3113 42.6267 42.4346 42.6184 42.5557 42.6353C42.6768 42.6522 42.7931 42.694 42.8973 42.758C44.672 43.6587 45.566 44.7595 45.913 45.9004C46.5624 45.6688 47.1179 45.2305 47.4942 44.6528C48.0811 43.8013 48.3329 42.763 48.2014 41.7372C48.1618 41.5542 48.1811 41.3633 48.2566 41.1919C48.3321 41.0206 48.4599 40.8775 48.6217 40.7831C49.2251 40.4486 49.7541 39.9946 50.1762 39.4488C50.549 38.9705 50.7615 38.3869 50.7833 37.7808C50.7915 37.1912 50.6344 36.6111 50.3297 36.1062C50.0251 35.5859 49.6189 35.1321 49.1354 34.7719C48.9663 34.6646 48.8377 34.5041 48.7701 34.3156C48.7024 34.1271 48.6995 33.9214 48.7618 33.7311C48.9262 33.265 48.9832 32.7678 48.9286 32.2766C48.8341 31.5807 48.5398 30.9272 48.0813 30.3952C47.6519 29.8791 47.0921 29.4874 46.46 29.261C46.1672 29.1563 45.8565 29.1109 45.546 29.1276C45.3759 29.7063 45.0823 30.2412 44.6854 30.6954C44.6158 30.7976 44.5256 30.884 44.4205 30.949C44.3154 31.0141 44.1977 31.0562 44.0753 31.0728C43.9528 31.0893 43.8282 31.0799 43.7096 31.0452C43.591 31.0104 43.481 30.9511 43.3869 30.8711C43.2927 30.791 43.2164 30.6921 43.163 30.5806C43.1096 30.4691 43.0803 30.3477 43.0769 30.2242C43.0735 30.1006 43.0962 29.9777 43.1434 29.8635C43.1906 29.7493 43.2614 29.6463 43.351 29.5612C43.6516 29.2547 43.8457 28.8596 43.9045 28.4343C43.9634 28.0091 43.8839 27.5761 43.6779 27.1994C43.4144 26.7234 43.0117 26.3393 42.5237 26.0986C42.0552 25.8511 41.5169 25.7688 40.9959 25.8651C40.242 26.0185 39.5147 26.6457 39.0611 27.94L39.041 27.9333ZM43.5645 33.9379C43.3878 33.795 43.2727 33.5897 43.2429 33.3644C43.2131 33.1391 43.2709 32.9109 43.4044 32.7269C43.5379 32.543 43.7368 32.4173 43.9603 32.3757C44.1837 32.3341 44.4146 32.3799 44.6053 32.5035C44.7921 32.6369 44.9589 32.777 45.119 32.9171C46.2488 33.9248 46.9446 35.3307 47.0605 36.8401C47.1782 38.3297 46.7567 39.8119 45.8729 41.0167C45.7462 41.1901 45.5994 41.3636 45.4326 41.5504C45.2751 41.7273 45.0538 41.8345 44.8173 41.8482C44.5808 41.862 44.3486 41.7813 44.1716 41.6238C43.9947 41.4663 43.8875 41.245 43.8738 41.0085C43.86 40.772 43.9408 40.5398 44.0982 40.3628C44.2092 40.2392 44.3139 40.1101 44.4118 39.9759C45.0456 39.1113 45.3507 38.0493 45.2725 36.9802C45.1972 35.9285 44.7192 34.9464 43.9381 34.2381C43.8222 34.1305 43.6996 34.0303 43.5712 33.9379H43.5645ZM37.2597 28.8607L37.2197 28.794C36.7927 27.066 35.9587 26.2721 35.098 26.1253C34.5181 26.0219 33.9204 26.1334 33.4168 26.4389C32.9093 26.6464 32.4798 27.0081 32.1892 27.473C32.0528 27.9074 32.0554 28.3736 32.1965 28.8065C32.3376 29.2394 32.6102 29.6175 32.9764 29.8882C33.1489 30.0483 33.2508 30.2704 33.2595 30.5056C33.2683 30.7409 33.1833 30.9699 33.0231 31.1425C32.9438 31.2279 32.8485 31.2968 32.7425 31.3454C32.6366 31.394 32.5221 31.4212 32.4057 31.4256C32.1704 31.4343 31.9414 31.3493 31.7688 31.1892C31.1508 30.6553 30.6896 29.9634 30.4345 29.1876C29.8158 29.3539 29.2694 29.7198 28.88 30.2284C28.3186 30.9212 27.9998 31.779 27.9726 32.6703C27.9656 32.9402 27.9812 33.2102 28.0193 33.4776C28.0414 33.6476 28.0142 33.8204 27.9408 33.9753C27.8675 34.1303 27.7512 34.2609 27.6057 34.3516C27.0206 34.696 26.5065 35.1489 26.0912 35.6859C25.7032 36.1926 25.4859 36.8093 25.4707 37.4473C25.4731 38.0524 25.6466 38.6445 25.9711 39.1552C26.2626 39.621 26.6408 40.0264 27.0853 40.3495C27.2439 40.4605 27.3622 40.6201 27.4224 40.8042C27.4826 40.9883 27.4813 41.1869 27.4188 41.3703C27.2484 41.8673 27.1959 42.3972 27.2654 42.9181C27.3734 43.6059 27.6741 44.249 28.1327 44.7729C28.5592 45.2695 29.1059 45.6485 29.7206 45.8737C29.9555 45.9523 30.2003 45.9972 30.4478 46.0071C30.7948 44.8596 31.7822 43.7054 33.5702 42.778C33.6744 42.714 33.7907 42.6722 33.9118 42.6553C34.0329 42.6384 34.1562 42.6467 34.274 42.6797C34.3917 42.7126 34.5014 42.7696 34.5961 42.847C34.6908 42.9243 34.7684 43.0205 34.8242 43.1293C34.88 43.2381 34.9127 43.3573 34.9203 43.4793C34.9278 43.6013 34.9101 43.7236 34.8681 43.8385C34.8262 43.9534 34.7609 44.0583 34.6765 44.1468C34.5921 44.2352 34.4903 44.3053 34.3775 44.3525C32.6962 45.2132 32.0624 46.2006 32.0624 47.0679C32.0784 47.4102 32.1713 47.7444 32.3341 48.0459C32.497 48.3474 32.7256 48.6083 33.0031 48.8093C33.2803 49.0341 33.6021 49.1973 33.9471 49.2882C34.2922 49.3791 34.6527 49.3955 35.0046 49.3363C35.8653 49.1562 36.6993 48.3623 37.1263 46.6276C37.1527 46.5225 37.1979 46.4231 37.2597 46.334V28.8607ZM30.668 33.1106C30.7525 33.0291 30.8523 32.9651 30.9616 32.9222C31.0709 32.8793 31.1876 32.8583 31.305 32.8605C31.4224 32.8626 31.5382 32.8879 31.6458 32.9348C31.7535 32.9818 31.8508 33.0494 31.9323 33.134C32.0138 33.2185 32.0778 33.3183 32.1207 33.4276C32.1637 33.5369 32.1846 33.6536 32.1825 33.771C32.1803 33.8884 32.155 34.0042 32.1081 34.1118C32.0612 34.2195 31.9935 34.3168 31.9089 34.3983C31.1572 35.1339 30.7156 36.1294 30.6747 37.1804C30.6321 38.2759 30.9929 39.3489 31.6888 40.196C31.8365 40.38 31.9051 40.6152 31.8795 40.8498C31.8538 41.0844 31.736 41.2992 31.552 41.447C31.4609 41.5201 31.3562 41.5746 31.2441 41.6073C31.1319 41.6401 31.0144 41.6504 30.8982 41.6377C30.6636 41.612 30.4488 41.4942 30.301 41.3102C29.3322 40.114 28.8339 38.6049 28.9 37.067C28.9535 35.5551 29.5865 34.1218 30.668 33.0639V33.1106ZM29.9074 68.5443C29.5284 68.5546 29.1595 68.4217 28.8741 68.1721C28.5888 67.9225 28.4079 67.5746 28.3675 67.1977C28.3271 66.8207 28.4302 66.4424 28.6562 66.138C28.8822 65.8337 29.2146 65.6256 29.5872 65.5554C28.7265 60.665 26.3714 57.9763 23.8828 55.1274C21.948 52.9124 19.9398 50.6106 18.3519 47.2214C16.7857 43.9892 15.9693 40.4451 15.9634 36.8535C16.0428 32.9777 17.0445 29.1765 18.8857 25.765L18.9257 25.6983C21.2561 21.6518 24.8658 18.495 29.1869 16.7248C32.5706 15.3648 36.2323 14.8408 39.8617 15.197C43.4599 15.5234 46.9413 16.6421 50.0561 18.4728C54.0489 20.7702 57.1778 24.3139 58.9629 28.5605C59.9903 31.0512 60.5599 33.7068 60.6442 36.3998C60.7122 39.5554 60.1237 42.6906 58.9162 45.6068C57.1482 49.9768 54.8131 52.6922 52.6314 55.2342C50.6299 57.5693 48.7485 59.7509 47.7077 63.0868C48.0469 63.1704 48.3466 63.3692 48.5555 63.6493C48.7644 63.9293 48.8695 64.2732 48.853 64.6222C48.8364 64.9712 48.6992 65.3036 48.4648 65.5627C48.2303 65.8217 47.9132 65.9913 47.5676 66.0424L47.0605 66.1158C46.9671 66.843 46.9071 67.6169 46.8804 68.4509H47.0472C47.2434 68.4238 47.4431 68.4355 47.6348 68.4855C47.8265 68.5355 48.0065 68.6228 48.1645 68.7424C48.3225 68.862 48.4554 69.0115 48.5555 69.1824C48.6557 69.3533 48.7213 69.5423 48.7485 69.7386C48.7756 69.9348 48.7639 70.1345 48.7138 70.3262C48.6638 70.5179 48.5766 70.6979 48.457 70.8559C48.3374 71.0139 48.1879 71.1468 48.017 71.2469C47.846 71.3471 47.6571 71.4127 47.4608 71.4399L46.9471 71.5132V71.8135C46.9869 72.3754 46.9869 72.9395 46.9471 73.5014H47.0338C47.4205 73.4751 47.8027 73.598 48.1015 73.8449C48.4003 74.0918 48.5931 74.4439 48.6401 74.8287C48.6871 75.2134 48.5848 75.6016 48.3543 75.9132C48.1237 76.2248 47.7825 76.4362 47.4008 76.5037L46.2799 76.6372C45.5513 78.575 44.1778 80.2029 42.3903 81.2473C41.2538 81.9085 39.9794 82.2967 38.6674 82.3815C37.3507 82.446 36.0393 82.1727 34.8579 81.5876C33.3638 80.8412 32.1378 79.6501 31.3485 78.1783C31.1277 78.0669 30.9379 77.9026 30.7958 77.7C30.6538 77.4975 30.5641 77.263 30.5346 77.0174C30.5094 76.8184 30.5253 76.6163 30.5813 76.4237C30.3042 75.5999 30.1097 74.7506 30.0008 73.8884H29.9541C29.5578 73.9432 29.1558 73.8384 28.8368 73.5969C28.6788 73.4773 28.5459 73.3278 28.4457 73.1569C28.3455 72.986 28.28 72.797 28.2528 72.6007C28.2257 72.4045 28.2374 72.2048 28.2874 72.0131C28.3374 71.8214 28.4247 71.6414 28.5443 71.4834C28.7858 71.1644 29.1441 70.9543 29.5405 70.8994L29.9007 70.8527C29.9007 70.0321 29.9007 69.2649 29.9007 68.5376L29.9074 68.5443ZM32.396 65.1551L44.6653 63.4137C45.7195 58.9637 48.0012 56.295 50.4965 53.4061C52.538 51.031 54.7197 48.4957 56.3076 44.5594C57.3748 41.9997 57.8974 39.2459 57.8421 36.4732C57.7654 34.1158 57.2613 31.7919 56.3543 29.6146C54.8048 25.9394 52.0901 22.8755 48.6284 20.8946C45.8759 19.2715 42.7972 18.2802 39.6148 17.9924C36.4284 17.6782 33.2132 18.1359 30.241 19.3268C26.5004 20.8665 23.3753 23.6021 21.3542 27.106C19.7329 30.1117 18.848 33.4593 18.7723 36.8735C18.7802 40.0478 19.5054 43.1793 20.8939 46.0338C22.2266 48.6886 23.9467 51.1305 25.9978 53.2793C28.8066 56.4951 31.4619 59.5374 32.396 65.1551ZM44.1983 66.5294L32.7096 68.1574C32.7096 68.8846 32.7563 69.6518 32.7096 70.4591L44.0515 68.8512C44.0515 68.0306 44.0982 67.2567 44.165 66.5294H44.1983ZM32.8563 73.4948C32.9294 74.0637 33.0477 74.6259 33.2099 75.176L44.185 73.8417C44.2591 73.2374 44.2725 72.6272 44.225 72.0203V71.8935L32.883 73.5081L32.8563 73.4948ZM34.7711 78.0249C35.1727 78.4476 35.6444 78.7975 36.1655 79.059C36.9251 79.425 37.7658 79.5904 38.6074 79.5394C39.4799 79.4794 40.3269 79.2191 41.0826 78.7788C41.8386 78.3367 42.4896 77.7357 42.9907 77.0174L34.7711 78.0249ZM74.0077 33.7311C74.2523 33.7052 74.4995 33.7279 74.7352 33.7978C74.971 33.8677 75.1906 33.9834 75.3815 34.1384C75.5724 34.2934 75.7308 34.4845 75.8477 34.7008C75.9646 34.9171 76.0376 35.1544 76.0626 35.399C76.113 35.8936 75.9648 36.3879 75.6508 36.7732C75.3368 37.1586 74.8825 37.4034 74.388 37.4539L68.6436 38.0611C68.3986 38.0869 68.1508 38.0636 67.9148 37.9926C67.6788 37.9215 67.4594 37.8042 67.2692 37.6474C66.9758 37.4147 66.7587 37.0993 66.6461 36.7421C66.5335 36.3848 66.5305 36.0021 66.6375 35.6431C66.7445 35.2841 66.9565 34.9654 67.2463 34.7281C67.5361 34.4908 67.8903 34.3457 68.2633 34.3115L74.0077 33.7111V33.7311ZM63.1995 10.3799C63.4787 9.96957 63.9073 9.68464 64.3937 9.58601C64.6342 9.53733 64.882 9.53652 65.1228 9.58361C65.3636 9.6307 65.5928 9.72477 65.7973 9.86046C66.0017 9.99614 66.1774 10.1708 66.3144 10.3744C66.4513 10.578 66.5468 10.8066 66.5954 11.0471C66.6436 11.2876 66.6437 11.5352 66.5956 11.7757C66.5475 12.0162 66.4522 12.2448 66.3152 12.4482L63.1061 17.2519C62.9698 17.4576 62.794 17.6342 62.5891 17.7717C62.3841 17.9091 62.1539 18.0045 61.9118 18.0525C61.4253 18.1435 60.9224 18.0406 60.5108 17.7656C60.3045 17.6298 60.1275 17.4543 59.99 17.2492C59.8526 17.0441 59.7574 16.8137 59.7102 16.5713C59.6617 16.3305 59.6622 16.0824 59.7115 15.8417C59.7607 15.601 59.8579 15.3727 59.997 15.1703L63.1995 10.3666V10.3799ZM38.3939 2.20037C38.401 1.69719 38.6074 1.21736 38.9677 0.866023C39.2362 0.612067 39.5739 0.443172 39.9382 0.38057C40.3025 0.317967 40.6772 0.36445 41.0151 0.514176C41.3531 0.663901 41.6392 0.910187 41.8376 1.22208C42.036 1.53396 42.1377 1.89754 42.1301 2.26709L41.99 8.03816C41.9987 8.293 41.9554 8.54694 41.8626 8.78446C41.7699 9.02198 41.6296 9.23808 41.4505 9.41954C41.2714 9.60101 41.0571 9.74402 40.8208 9.83984C40.5845 9.93566 40.3311 9.98227 40.0762 9.97682C39.8213 9.97136 39.5701 9.91396 39.3382 9.80813C39.1062 9.70229 38.8982 9.55025 38.727 9.36129C38.5558 9.17233 38.4249 8.95043 38.3424 8.70916C38.2599 8.46789 38.2275 8.21233 38.2471 7.9581L38.3939 2.18036V2.20037ZM9.50519 11.4741C9.15633 11.132 8.95483 10.6672 8.94361 10.1787C8.9324 9.69015 9.11235 9.21657 9.44514 8.85879C9.7783 8.51273 10.2327 8.30943 10.7128 8.29169C11.2057 8.27849 11.6844 8.45799 12.0471 8.79207C13.4415 10.1264 14.8693 11.4274 16.2703 12.7351C16.4542 12.9064 16.602 13.1126 16.7051 13.3417C16.8082 13.5708 16.8645 13.8182 16.8708 14.0694C16.8819 14.562 16.7027 15.0399 16.3704 15.4038C16.0283 15.7526 15.5635 15.9541 15.075 15.9654C14.5865 15.9766 14.1129 15.7966 13.7551 15.4638C12.4207 14.1762 10.9196 12.7351 9.51853 11.5141L9.50519 11.4741Z" fill="white"/>
</svg>
