<svg width="71" height="71" viewBox="0 0 71 71" fill="none" xmlns="http://www.w3.org/2000/svg">
<path d="M67.415 3.347C65.0427 0.972975 61.6763 -0.0678117 57.9422 0.39917C54.4124 0.845138 50.9433 2.61734 48.173 5.38829C45.9787 7.58194 44.4248 10.2157 43.6456 12.9686L31.8262 11.0481C28.2357 10.4644 24.5565 11.6517 21.9834 14.2248L3.74894 32.4593C1.60608 34.6021 0.425781 37.4513 0.425781 40.482C0.425781 43.5127 1.60608 46.3619 3.74894 48.5042L22.2566 67.0118C24.3995 69.1547 27.2492 70.335 30.2794 70.335C33.3095 70.335 36.1593 69.1547 38.3021 67.0118L56.5366 48.7774C59.1091 46.2049 60.2964 42.5256 59.7133 38.9345L56.0679 16.5019C55.9167 15.572 55.1882 14.8435 54.2583 14.6923L47.9961 13.6749C48.6131 11.811 49.7333 10.0173 51.2679 8.48263C53.3553 6.39522 55.9202 5.06666 58.4909 4.7421C60.8515 4.44032 62.9232 5.04623 64.3189 6.44192C65.7134 7.83645 66.317 9.90576 66.0181 12.2693C65.693 14.84 64.3644 17.4049 62.2776 19.4923C61.4224 20.3469 61.4224 21.7327 62.2776 22.5878C63.1316 23.443 64.5179 23.443 65.3731 22.5878C68.144 19.8175 69.9162 16.3484 70.3622 12.8186C70.8344 9.08387 69.7878 5.71927 67.415 3.347ZM55.3919 39.6374C55.7503 41.8427 55.0213 44.1023 53.4411 45.6824L35.2066 63.9169C33.8903 65.2332 32.1403 65.9576 30.2788 65.9576C28.4173 65.9576 26.6678 65.2332 25.3521 63.9169C25.3515 63.9169 25.3515 63.9169 25.3515 63.9169L6.84445 45.4087C5.52815 44.0929 4.80374 42.3435 4.80374 40.482C4.80374 38.6205 5.52815 36.8705 6.84445 35.5542L25.0789 17.3197C26.3941 16.0051 28.1797 15.2796 30.0126 15.2796C30.3827 15.2796 30.7539 15.3087 31.124 15.3695L43.0974 17.315C43.1932 20.1765 44.2264 22.7262 46.1317 24.6303C46.559 25.057 47.1193 25.2712 47.6791 25.2712C48.2389 25.2712 48.7999 25.0576 49.2272 24.6297C50.0817 23.7745 50.0817 22.3888 49.2266 21.5342C48.3148 20.623 47.7486 19.4194 47.5443 18.0377L51.9999 18.7615L55.3919 39.6374Z" fill="#0D1220"/>
<path d="M41.3023 32.5523L42.4424 31.4123C43.2975 30.5577 43.2975 29.1713 42.4424 28.3168C41.5884 27.4616 40.2008 27.4616 39.3468 28.3168L38.2068 29.4568C36.8304 28.0833 35.0022 27.3262 33.0572 27.3262C31.1087 27.3262 29.2775 28.085 27.9005 29.462C26.5229 30.839 25.7641 32.6708 25.7641 34.6193C25.7641 36.5672 26.5229 38.3983 27.9005 39.7759L30.9832 42.8586C31.5337 43.4096 31.8372 44.141 31.8372 44.9197C31.8372 45.6984 31.5337 46.4298 30.9826 46.9809C29.8811 48.0812 27.963 48.0818 26.8615 46.9809L23.7782 43.8976C23.2278 43.3472 22.9242 42.6158 22.9242 41.8376C22.9242 41.059 23.2278 40.3275 23.7782 39.7771C24.6334 38.9219 24.6334 37.5362 23.7788 36.6816C22.9242 35.827 21.5385 35.8264 20.6833 36.681C19.3057 38.058 18.5469 39.8897 18.5469 41.8382C18.5469 43.7832 19.304 45.612 20.6775 46.9879L19.5369 48.1285C18.6817 48.9831 18.6817 50.3694 19.5369 51.224C19.9636 51.6513 20.5245 51.8655 21.0843 51.8655C21.6441 51.8655 22.2051 51.6519 22.6318 51.224L23.7718 50.084C25.1483 51.4575 26.9765 52.2146 28.9215 52.2146C30.87 52.2146 32.7011 51.4557 34.0781 50.0787C35.4557 48.7017 36.2146 46.87 36.2146 44.9215C36.2146 42.9736 35.4557 41.1424 34.0781 39.7648L30.9955 36.6822C30.445 36.1311 30.1415 35.3997 30.1415 34.621C30.1415 33.8423 30.445 33.1109 30.996 32.5599C32.0969 31.459 34.0157 31.459 35.1177 32.5599L38.2004 35.6425C38.7509 36.1936 39.0544 36.925 39.0544 37.7037C39.0544 38.4824 38.7509 39.2138 38.2004 39.7642C37.3452 40.6194 37.3452 42.0052 38.1998 42.8598C39.0544 43.7143 40.4402 43.7149 41.2953 42.8603C42.6729 41.4833 43.4318 39.6516 43.4318 37.7031C43.4324 35.7575 42.6758 33.9287 41.3023 32.5523Z" fill="#0D1220"/>
</svg>
