<svg width="40" height="30" viewBox="0 0 40 30" fill="none" xmlns="http://www.w3.org/2000/svg">
<mask id="mask0_405_275" style="mask-type:alpha" maskUnits="userSpaceOnUse" x="0" y="0" width="40" height="30">
<path fill-rule="evenodd" clip-rule="evenodd" d="M0.62561 0.602722V29.6959H39.4165V0.602722H0.62561Z" fill="#2E42A5"/>
</mask>
<g mask="url(#mask0_405_275)">
<path fill-rule="evenodd" clip-rule="evenodd" d="M0.62561 0.602722V29.6959H39.4165V0.602722H0.62561Z" fill="#2E42A5"/>
<path d="M-3.69458 27.6146L4.84437 31.2259L39.6077 4.52904L44.1078 -0.837329L34.9838 -2.04111L20.8085 9.46791L9.38947 17.2193L-3.69458 27.6146Z" fill="white"/>
<path d="M-2.52454 30.1459L1.82931 32.2385L42.4878 -1.33231H36.3789L-2.52454 30.1459Z" fill="#F50100"/>
<path d="M43.7366 27.6146L35.1976 31.2259L0.434308 4.52904L-4.0658 -0.837329L5.05816 -2.04111L19.2335 9.46791L30.6525 17.2193L43.7366 27.6146Z" fill="white"/>
<path d="M43.4441 29.4259L39.0902 31.5184L21.7761 17.1518L16.646 15.5431L-4.50452 -0.814819H1.60437L22.7324 15.1605L28.3462 17.0843L43.4441 29.4259Z" fill="#F50100"/>
<path fill-rule="evenodd" clip-rule="evenodd" d="M24.6 -1.82735H15.4423V10.2892H-1.77063V19.9869H15.431V32.1034H24.5887V19.9982H41.8579V10.3004H24.6V-1.82735Z" fill="#F50100"/>
<path d="M15.4422 -1.82735V-4.24615H13.0234V-1.82735H15.4422ZM24.6 -1.82735H27.0188V-4.24615H24.6V-1.82735ZM15.4422 10.3004V12.7192H17.8611V10.3004H15.4422ZM-1.77065 10.3004V7.88163H-4.18945V10.3004H-1.77065ZM-1.77065 19.9982H-4.18945V22.417H-1.77065V19.9982ZM15.4422 19.9982H17.8611V17.5793H15.4422V19.9982ZM15.4422 32.1147H13.0234V34.5335H15.4422V32.1147ZM24.6 32.1147V34.5335H27.0188V32.1147H24.6ZM24.6 19.9982V17.5793H22.1812V19.9982H24.6ZM41.8691 19.9982V22.417H44.2879V19.9982H41.8691ZM41.8691 10.3004H44.2879V7.88163H41.8691V10.3004ZM24.6 10.3004H22.1812V12.7192H24.6V10.3004ZM15.4422 0.602707H24.6V-4.24615H15.4422V0.602707ZM17.8611 10.3004V-1.82735H13.0122V10.2892H17.8611V10.3004ZM-1.77065 12.7192H15.431V7.87038H-1.77065V12.7192ZM0.659409 19.9982V10.3004H-4.18945V19.9982H0.659409ZM15.4422 17.5681H-1.77065V22.417H15.431V17.5681H15.4422ZM17.8611 32.1147V19.9982H13.0122V32.1147H17.8611ZM24.6 29.6959H15.4422V34.5447H24.6V29.6959ZM22.1699 19.9982V32.1147H27.0188V19.9982H22.1699ZM41.8691 17.5681H24.6V22.417H41.8691V17.5681ZM39.4503 10.3004V19.9982H44.2992V10.3004H39.4503ZM24.6 12.7192H41.8691V7.87038H24.6V12.7192ZM22.1699 -1.82735V10.2892H27.0188V-1.82735H22.1699Z" fill="white"/>
</g>
</svg>
