<svg width="83" height="74" viewBox="0 0 83 74" fill="none" xmlns="http://www.w3.org/2000/svg">
<path d="M7.34448 60.3383C5.7762 59.359 4.42629 58.0752 3.37415 56.5533C1.78602 54.31 0.932398 51.6367 0.925781 48.8905V13.495C0.939016 9.93495 2.36833 6.52709 4.89611 4.01916L4.99537 3.9199C7.49006 1.45168 10.8582 0.0620626 14.372 0.0488281H58.6742C62.1284 0.0554453 65.4503 1.39874 67.9383 3.79417C69.0567 4.87278 69.9831 6.13005 70.6845 7.51305H69.7316H66.4826C66.1782 7.11602 65.8407 6.73884 65.4834 6.39474C63.9614 4.93895 62.0159 4.01254 59.9315 3.74785L57.8802 7.52629H54.1944L56.292 3.66845H42.5613L40.4703 7.52629H36.7911L38.8888 3.66845H24.7809L22.5575 7.7248C21.1745 7.9564 19.8246 8.3402 18.5342 8.8762L18.1305 9.04825L21.0752 3.63536H14.372C11.7979 3.63536 9.32965 4.64118 7.49006 6.44106L7.41066 6.5337C5.55783 8.37329 4.51231 10.8812 4.51231 13.495H12.0162C10.7656 14.8714 9.73992 16.4397 8.95908 18.1271H4.51231V48.8905C4.5057 50.9022 5.1211 52.8609 6.27249 54.5085C6.59012 54.9784 6.94745 55.4217 7.34448 55.832V60.3714V60.3383ZM26.2631 12.9458H68.9375C76.276 12.9656 82.2183 18.9079 82.2382 26.2464V60.3449C82.2117 67.6768 76.2694 73.6191 68.9375 73.6389H26.2631C18.9312 73.6191 12.989 67.6768 12.9691 60.3449V26.2464C12.989 18.9145 18.9312 12.9723 26.2631 12.9458ZM42.9584 38.5213L55.5311 47.2892C56.828 48.0832 57.2383 49.7772 56.4442 51.0742C56.2391 51.4117 55.9612 51.7028 55.6303 51.9212L43.1304 60.5302C41.9327 61.4831 40.1924 61.278 39.2461 60.0869C38.8623 59.6038 38.6505 59.0083 38.6439 58.3862V40.7712C38.6439 39.2559 39.8681 38.025 41.3835 38.0184C41.9525 38.0184 42.5084 38.1905 42.9716 38.5213H42.9584ZM58.2772 26.5574L62.7769 17.0948H48.8808L44.3811 26.5574H58.2772ZM66.5223 17.0948L62.0226 26.5574H76.7393C77.2355 26.5574 77.7186 26.7361 78.0958 27.0669V26.2464C78.0759 21.1975 73.9865 17.108 68.9375 17.0948H66.5223ZM40.6291 26.5574L45.1222 17.0948H30.8422L26.3425 26.5574H40.6291ZM22.5707 26.5574L27.0704 17.0948H26.2631C21.2142 17.108 17.1247 21.1975 17.1115 26.2464V26.5574H22.5707ZM78.0693 30.1903C77.6921 30.5211 77.2091 30.6998 76.7128 30.6998H17.1115V60.3449C17.1049 65.4071 21.2009 69.5164 26.2631 69.5296H68.9375C73.9865 69.5098 78.0693 65.4269 78.0958 60.378V30.1903H78.0693Z" fill="#0D1220"/>
</svg>
