<svg width="90" height="59" viewBox="0 0 90 59" fill="none" xmlns="http://www.w3.org/2000/svg">
<rect x="15.8301" y="7.31128" width="61.4381" height="42.6127" fill="white"/>
<path d="M38.271 0.49365C44.4128 0.49365 50.5571 0.378062 56.6965 0.523703C63.5634 0.685528 70.4229 1.04848 77.2824 1.39524C80.4136 1.55476 83.1785 2.58581 85.2504 4.93226C86.9241 6.8256 87.7769 9.11195 88.1947 11.4445C88.7846 14.7319 89.1409 18.0747 89.3105 21.4083C89.721 29.5295 89.7357 37.6624 88.6641 45.7397C88.2095 49.1588 87.2632 52.5317 84.5475 55.1695C82.5002 57.1553 79.8974 57.8604 77.1276 58.0361C72.0696 58.3574 67.0018 58.6464 61.9339 58.7411C53.9955 58.8891 46.0521 58.9677 38.1137 58.8845C30.6717 58.8059 23.2297 58.5169 15.7902 58.2279C13.9248 58.154 12.0372 57.8534 10.2259 57.4188C6.89815 56.6259 4.76976 54.536 3.45488 51.57C1.78117 47.7949 1.49116 43.814 1.26013 39.8216C0.753841 31.0461 0.692397 22.259 1.8377 13.5298C2.34645 9.6529 3.47208 5.82923 7.16604 3.24697C9.37308 1.70502 11.9439 1.3675 14.4753 1.23342C22.399 0.812675 30.3325 0.599992 38.2636 0.306396C38.2661 0.368814 38.2685 0.431232 38.271 0.49365ZM36.1672 17.2055C36.1672 25.0123 36.1672 32.6158 36.1672 40.418C44.0958 36.5273 51.8941 32.699 59.8178 28.8129C51.8868 24.9199 44.0958 21.0962 36.1672 17.2055Z" fill="#FF2D2D"/>
</svg>
